<svg version="1.1" xmlns="http://www.w3.org/2000/svg" xmlns:xlink="http://www.w3.org/1999/xlink" width="3300" height="2200" viewBox="0 0 3300 2200">
    <g id="Notes">
        <rect height="2200" id="artboard" style="fill:white;opacity:1" width="3300" x="0" y="0"></rect>
        <line style="fill:none;stroke:black;opacity:1;stroke-width:0.5;" x1="263" x2="3036" y1="292" y2="292"></line>
        <text style="stroke:none;fill:black;font-family:sans-serif;font-size:13;font-weight:bold;" transform="matrix(1 0 0 1 263 322)">Weight/Scale Variations</text>
        <text style="stroke:none;fill:black;font-family:sans-serif;font-size:13;text-anchor:middle;" transform="matrix(1 0 0 1 559.711 322)">Ultralight</text>
        <text style="stroke:none;fill:black;font-family:sans-serif;font-size:13;text-anchor:middle;" transform="matrix(1 0 0 1 856.422 322)">Thin</text>
        <text style="stroke:none;fill:black;font-family:sans-serif;font-size:13;text-anchor:middle;" transform="matrix(1 0 0 1 1153.13 322)">Light</text>
        <text style="stroke:none;fill:black;font-family:sans-serif;font-size:13;text-anchor:middle;" transform="matrix(1 0 0 1 1449.84 322)">Regular</text>
        <text style="stroke:none;fill:black;font-family:sans-serif;font-size:13;text-anchor:middle;" transform="matrix(1 0 0 1 1746.56 322)">Medium</text>
        <text style="stroke:none;fill:black;font-family:sans-serif;font-size:13;text-anchor:middle;" transform="matrix(1 0 0 1 2043.27 322)">Semibold</text>
        <text style="stroke:none;fill:black;font-family:sans-serif;font-size:13;text-anchor:middle;" transform="matrix(1 0 0 1 2339.98 322)">Bold</text>
        <text style="stroke:none;fill:black;font-family:sans-serif;font-size:13;text-anchor:middle;" transform="matrix(1 0 0 1 2636.69 322)">Heavy</text>
        <text style="stroke:none;fill:black;font-family:sans-serif;font-size:13;text-anchor:middle;" transform="matrix(1 0 0 1 2933.4 322)">Black</text>
        <line style="fill:none;stroke:black;opacity:1;stroke-width:0.5;" x1="263" x2="3036" y1="1903" y2="1903"></line>
        <g transform="matrix(1 0 0 1 263 1933)">
            <path d="M9.24805 0.830078Q10.8691 0.830078 12.2949 0.214844Q13.7207-0.400391 14.8096-1.49414Q15.8984-2.58789 16.5186-4.01367Q17.1387-5.43945 17.1387-7.05078Q17.1387-8.66211 16.5186-10.0879Q15.8984-11.5137 14.8047-12.6074Q13.7109-13.7012 12.2852-14.3164Q10.8594-14.9316 9.23828-14.9316Q7.62695-14.9316 6.20117-14.3164Q4.77539-13.7012 3.69141-12.6074Q2.60742-11.5137 1.9873-10.0879Q1.36719-8.66211 1.36719-7.05078Q1.36719-5.43945 1.9873-4.01367Q2.60742-2.58789 3.69629-1.49414Q4.78516-0.400391 6.21094 0.214844Q7.63672 0.830078 9.24805 0.830078ZM9.24805-0.654297Q7.91992-0.654297 6.7627-1.14746Q5.60547-1.64062 4.73145-2.51953Q3.85742-3.39844 3.36426-4.56055Q2.87109-5.72266 2.87109-7.05078Q2.87109-8.37891 3.35938-9.54102Q3.84766-10.7031 4.72168-11.582Q5.5957-12.4609 6.75293-12.9541Q7.91016-13.4473 9.23828-13.4473Q10.5762-13.4473 11.7334-12.9541Q12.8906-12.4609 13.7695-11.582Q14.6484-10.7031 15.1465-9.54102Q15.6445-8.37891 15.6445-7.05078Q15.6445-5.72266 15.1514-4.56055Q14.6582-3.39844 13.7842-2.51953Q12.9102-1.64062 11.748-1.14746Q10.5859-0.654297 9.24805-0.654297ZM5.83984-7.04102Q5.83984-6.71875 6.04492-6.51855Q6.25-6.31836 6.5918-6.31836L8.50586-6.31836L8.50586-4.39453Q8.50586-4.0625 8.70605-3.85742Q8.90625-3.65234 9.22852-3.65234Q9.56055-3.65234 9.76562-3.85742Q9.9707-4.0625 9.9707-4.39453L9.9707-6.31836L11.8945-6.31836Q12.2266-6.31836 12.4316-6.51855Q12.6367-6.71875 12.6367-7.04102Q12.6367-7.37305 12.4316-7.57812Q12.2266-7.7832 11.8945-7.7832L9.9707-7.7832L9.9707-9.69727Q9.9707-10.0391 9.76562-10.2441Q9.56055-10.4492 9.22852-10.4492Q8.90625-10.4492 8.70605-10.2441Q8.50586-10.0391 8.50586-9.69727L8.50586-7.7832L6.5918-7.7832Q6.25-7.7832 6.04492-7.57812Q5.83984-7.37305 5.83984-7.04102Z"></path>
        </g>
        <g transform="matrix(1 0 0 1 281.867 1933)">
            <path d="M11.709 2.91016Q13.75 2.91016 15.5518 2.12891Q17.3535 1.34766 18.7305-0.0292969Q20.1074-1.40625 20.8887-3.20801Q21.6699-5.00977 21.6699-7.05078Q21.6699-9.0918 20.8887-10.8936Q20.1074-12.6953 18.7305-14.0723Q17.3535-15.4492 15.5469-16.2305Q13.7402-17.0117 11.6992-17.0117Q9.6582-17.0117 7.85645-16.2305Q6.05469-15.4492 4.68262-14.0723Q3.31055-12.6953 2.5293-10.8936Q1.74805-9.0918 1.74805-7.05078Q1.74805-5.00977 2.5293-3.20801Q3.31055-1.40625 4.6875-0.0292969Q6.06445 1.34766 7.86621 2.12891Q9.66797 2.91016 11.709 2.91016ZM11.709 1.25Q9.98047 1.25 8.47656 0.605469Q6.97266-0.0390625 5.83496-1.17676Q4.69727-2.31445 4.05762-3.81836Q3.41797-5.32227 3.41797-7.05078Q3.41797-8.7793 4.05762-10.2832Q4.69727-11.7871 5.83008-12.9297Q6.96289-14.0723 8.4668-14.7119Q9.9707-15.3516 11.6992-15.3516Q13.4277-15.3516 14.9316-14.7119Q16.4355-14.0723 17.5781-12.9297Q18.7207-11.7871 19.3652-10.2832Q20.0098-8.7793 20.0098-7.05078Q20.0098-5.32227 19.3701-3.81836Q18.7305-2.31445 17.5928-1.17676Q16.4551-0.0390625 14.9463 0.605469Q13.4375 1.25 11.709 1.25ZM7.39258-7.04102Q7.39258-6.68945 7.62695-6.46484Q7.86133-6.24023 8.23242-6.24023L10.8789-6.24023L10.8789-3.57422Q10.8789-3.21289 11.1035-2.9834Q11.3281-2.75391 11.6797-2.75391Q12.0508-2.75391 12.2852-2.9834Q12.5195-3.21289 12.5195-3.57422L12.5195-6.24023L15.1758-6.24023Q15.5371-6.24023 15.7715-6.46484Q16.0059-6.68945 16.0059-7.04102Q16.0059-7.41211 15.7715-7.6416Q15.5371-7.87109 15.1758-7.87109L12.5195-7.87109L12.5195-10.5176Q12.5195-10.8984 12.2852-11.1279Q12.0508-11.3574 11.6797-11.3574Q11.3281-11.3574 11.1035-11.1279Q10.8789-10.8984 10.8789-10.5176L10.8789-7.87109L8.23242-7.87109Q7.85156-7.87109 7.62207-7.6416Q7.39258-7.41211 7.39258-7.04102Z"></path>
        </g>
        <g transform="matrix(1 0 0 1 305.646 1933)">
            <path d="M14.9707 5.66406Q17.0605 5.66406 18.96 5.01465Q20.8594 4.36523 22.4512 3.19336Q24.043 2.02148 25.2197 0.429688Q26.3965-1.16211 27.0459-3.06641Q27.6953-4.9707 27.6953-7.05078Q27.6953-9.14062 27.0459-11.04Q26.3965-12.9395 25.2197-14.5312Q24.043-16.123 22.4512-17.2998Q20.8594-18.4766 18.9551-19.126Q17.0508-19.7754 14.9609-19.7754Q12.8711-19.7754 10.9717-19.126Q9.07227-18.4766 7.48535-17.2998Q5.89844-16.123 4.72168-14.5312Q3.54492-12.9395 2.90039-11.04Q2.25586-9.14062 2.25586-7.05078Q2.25586-4.9707 2.90527-3.06641Q3.55469-1.16211 4.72656 0.429688Q5.89844 2.02148 7.49023 3.19336Q9.08203 4.36523 10.9814 5.01465Q12.8809 5.66406 14.9707 5.66406ZM14.9707 3.84766Q13.1641 3.84766 11.5283 3.2959Q9.89258 2.74414 8.53516 1.74805Q7.17773 0.751953 6.17676-0.610352Q5.17578-1.97266 4.62891-3.6084Q4.08203-5.24414 4.08203-7.05078Q4.08203-8.86719 4.62891-10.5029Q5.17578-12.1387 6.17188-13.501Q7.16797-14.8633 8.52539-15.8594Q9.88281-16.8555 11.5186-17.4023Q13.1543-17.9492 14.9609-17.9492Q16.7773-17.9492 18.4131-17.4023Q20.0488-16.8555 21.4111-15.8594Q22.7734-14.8633 23.7695-13.501Q24.7656-12.1387 25.3174-10.5029Q25.8691-8.86719 25.8691-7.05078Q25.8789-5.24414 25.332-3.6084Q24.7852-1.97266 23.7842-0.610352Q22.7832 0.751953 21.4209 1.74805Q20.0586 2.74414 18.4229 3.2959Q16.7871 3.84766 14.9707 3.84766ZM9.45312-7.04102Q9.45312-6.66016 9.71191-6.41113Q9.9707-6.16211 10.3711-6.16211L14.0625-6.16211L14.0625-2.46094Q14.0625-2.06055 14.3115-1.80664Q14.5605-1.55273 14.9414-1.55273Q15.3516-1.55273 15.6055-1.80664Q15.8594-2.06055 15.8594-2.46094L15.8594-6.16211L19.5605-6.16211Q19.9609-6.16211 20.2148-6.41113Q20.4688-6.66016 20.4688-7.04102Q20.4688-7.45117 20.2148-7.70508Q19.9609-7.95898 19.5605-7.95898L15.8594-7.95898L15.8594-11.6504Q15.8594-12.0605 15.6055-12.3145Q15.3516-12.5684 14.9414-12.5684Q14.5605-12.5684 14.3115-12.3096Q14.0625-12.0508 14.0625-11.6504L14.0625-7.95898L10.3711-7.95898Q9.96094-7.95898 9.70703-7.70508Q9.45312-7.45117 9.45312-7.04102Z"></path>
        </g>
        <text style="stroke:none;fill:black;font-family:sans-serif;font-size:13;font-weight:bold;" transform="matrix(1 0 0 1 263 1953)">Design Variations</text>
        <text style="stroke:none;fill:black;font-family:sans-serif;font-size:13;" transform="matrix(1 0 0 1 263 1971)">Symbols are supported in up to nine weights and three scales.</text>
        <text style="stroke:none;fill:black;font-family:sans-serif;font-size:13;" transform="matrix(1 0 0 1 263 1989)">For optimal layout with text and other symbols, vertically align</text>
        <text style="stroke:none;fill:black;font-family:sans-serif;font-size:13;" transform="matrix(1 0 0 1 263 2007)">symbols with the adjacent text.</text>
        <line style="fill:none;stroke:#00AEEF;stroke-width:0.5;opacity:1.0;" x1="776" x2="776" y1="1919" y2="1933"></line>
        <g transform="matrix(1 0 0 1 776 1933)">
            <path d="M3.31055 0.15625Q3.70117 0.15625 3.91602-0.00976562Q4.13086-0.175781 4.26758-0.585938L5.52734-4.0332L11.2891-4.0332L12.5488-0.585938Q12.6855-0.175781 12.9004-0.00976562Q13.1152 0.15625 13.4961 0.15625Q13.8867 0.15625 14.1162-0.0585938Q14.3457-0.273438 14.3457-0.644531Q14.3457-0.869141 14.2383-1.17188L9.6582-13.3691Q9.48242-13.8184 9.17969-14.043Q8.87695-14.2676 8.4082-14.2676Q7.5-14.2676 7.17773-13.3789L2.59766-1.16211Q2.49023-0.859375 2.49023-0.634766Q2.49023-0.263672 2.70996-0.0537109Q2.92969 0.15625 3.31055 0.15625ZM6.00586-5.51758L8.37891-12.0898L8.42773-12.0898L10.8008-5.51758Z"></path>
        </g>
        <line style="fill:none;stroke:#00AEEF;stroke-width:0.5;opacity:1.0;" x1="793.197" x2="793.197" y1="1919" y2="1933"></line>
        <text style="stroke:none;fill:black;font-family:sans-serif;font-size:13;font-weight:bold;" transform="matrix(1 0 0 1 776 1953)">Margins</text>
        <text style="stroke:none;fill:black;font-family:sans-serif;font-size:13;" transform="matrix(1 0 0 1 776 1971)">Leading and trailing margins on the left and right side of each symbol</text>
        <text style="stroke:none;fill:black;font-family:sans-serif;font-size:13;" transform="matrix(1 0 0 1 776 1989)">can be adjusted by modifying the x-location of the margin guidelines.</text>
        <text style="stroke:none;fill:black;font-family:sans-serif;font-size:13;" transform="matrix(1 0 0 1 776 2007)">Modifications are automatically applied proportionally to all</text>
        <text style="stroke:none;fill:black;font-family:sans-serif;font-size:13;" transform="matrix(1 0 0 1 776 2025)">scales and weights.</text>
        <g transform="matrix(1 0 0 1 1289 1933)">
            <path d="M2.8418 1.86523L4.54102 3.57422Q5.18555 4.22852 5.90332 4.17969Q6.62109 4.13086 7.31445 3.35938L18.0078-8.42773L17.041-9.4043L6.42578 2.27539Q6.16211 2.57812 5.89355 2.61719Q5.625 2.65625 5.27344 2.30469L4.10156 1.14258Q3.75 0.791016 3.79395 0.522461Q3.83789 0.253906 4.14062-0.0195312L15.6152-10.8203L14.6387-11.7871L3.04688-0.898438Q2.30469-0.214844 2.25098 0.498047Q2.19727 1.21094 2.8418 1.86523ZM9.25781-16.3281Q8.94531-16.0254 8.90625-15.6348Q8.86719-15.2441 9.04297-14.9512Q9.21875-14.6777 9.55566-14.541Q9.89258-14.4043 10.3809-14.5215Q11.4746-14.7754 12.5977-14.7314Q13.7207-14.6875 14.7949-13.9844L14.209-12.5293Q13.9551-11.9043 14.0674-11.4404Q14.1797-10.9766 14.5801-10.5664L16.875-8.25195Q17.2363-7.88086 17.5781-7.82227Q17.9199-7.76367 18.3398-7.8418L19.4043-8.03711L20.0684-7.36328L20.0293-6.80664Q20-6.43555 20.1221-6.12305Q20.2441-5.81055 20.6055-5.44922L21.3672-4.70703Q21.7285-4.3457 22.1533-4.33105Q22.5781-4.31641 22.9297-4.66797L25.8398-7.58789Q26.1914-7.93945 26.1816-8.35449Q26.1719-8.76953 25.8105-9.13086L25.0391-9.89258Q24.6875-10.2539 24.3799-10.3857Q24.0723-10.5176 23.7109-10.4883L23.1348-10.4395L22.4902-11.0742L22.7344-12.1973Q22.832-12.6172 22.6953-12.9834Q22.5586-13.3496 22.1191-13.7891L19.9219-15.9766Q18.6719-17.2168 17.2607-17.8369Q15.8496-18.457 14.4189-18.4814Q12.9883-18.5059 11.665-17.959Q10.3418-17.4121 9.25781-16.3281ZM10.752-15.957Q11.6602-16.6211 12.7002-16.9043Q13.7402-17.1875 14.8047-17.085Q15.8691-16.9824 16.8701-16.5137Q17.8711-16.0449 18.7012-15.2051L21.1328-12.793Q21.3086-12.6172 21.3525-12.4512Q21.3965-12.2852 21.3379-12.0312L21.0156-10.5469L22.5195-9.0625L23.5059-9.12109Q23.6914-9.13086 23.7891-9.09668Q23.8867-9.0625 24.0332-8.91602L24.6094-8.33984L22.168-5.89844L21.5918-6.47461Q21.4453-6.62109 21.4062-6.71875Q21.3672-6.81641 21.377-7.01172L21.4453-7.98828L19.9512-9.47266L18.4277-9.21875Q18.1836-9.16992 18.042-9.2041Q17.9004-9.23828 17.7148-9.41406L15.7129-11.416Q15.5176-11.5918 15.4932-11.7529Q15.4688-11.9141 15.5859-12.1875L16.4648-14.2773Q15.293-15.3711 13.8281-15.791Q12.3633-16.2109 10.8398-15.7617Q10.7227-15.7324 10.6885-15.8057Q10.6543-15.8789 10.752-15.957Z"></path>
        </g>
        <text style="stroke:none;fill:black;font-family:sans-serif;font-size:13;font-weight:bold;" transform="matrix(1 0 0 1 1289 1953)">Exporting</text>
        <text style="stroke:none;fill:black;font-family:sans-serif;font-size:13;" transform="matrix(1 0 0 1 1289 1971)">Symbols should be outlined when exporting to ensure the</text>
        <text style="stroke:none;fill:black;font-family:sans-serif;font-size:13;" transform="matrix(1 0 0 1 1289 1989)">design is preserved when submitting to Xcode.</text>
        <text id="template-version" style="stroke:none;fill:black;font-family:sans-serif;font-size:13;text-anchor:end;" transform="matrix(1 0 0 1 3036 1933)">Template v.3.0</text>
        <text style="stroke:none;fill:black;font-family:sans-serif;font-size:13;text-anchor:end;" transform="matrix(1 0 0 1 3036 1951)">Requires Xcode 13 or greater</text>
        <text id="descriptive-name" style="stroke:none;fill:black;font-family:sans-serif;font-size:13;text-anchor:end;" transform="matrix(1 0 0 1 3036 1969)">Generated from custom.pencil.circle</text>
        <text style="stroke:none;fill:black;font-family:sans-serif;font-size:13;text-anchor:end;" transform="matrix(1 0 0 1 3036 1987)">Typeset at 100 points</text>
        <text style="stroke:none;fill:black;font-family:sans-serif;font-size:13;" transform="matrix(1 0 0 1 263 726)">Small</text>
        <text style="stroke:none;fill:black;font-family:sans-serif;font-size:13;" transform="matrix(1 0 0 1 263 1156)">Medium</text>
        <text style="stroke:none;fill:black;font-family:sans-serif;font-size:13;" transform="matrix(1 0 0 1 263 1586)">Large</text>
    </g>
    <g id="Guides">
        <g id="H-reference" style="fill:#27AAE1;stroke:none;" transform="matrix(1 0 0 1 339 696)">
            <path d="M0.976562 0L3.66211 0L29.3457-67.1387L30.0293-67.1387L30.0293-70.459L28.125-70.459ZM11.6699-24.4629L46.9727-24.4629L46.2402-26.709L12.4512-26.709ZM55.127 0L57.7637 0L30.6152-70.459L29.4434-70.459L29.4434-67.1387Z"></path>
        </g>
        <line id="Baseline-S" style="fill:none;stroke:#27AAE1;opacity:1;stroke-width:0.5;" x1="263" x2="3036" y1="696" y2="696"></line>
        <line id="Capline-S" style="fill:none;stroke:#27AAE1;opacity:1;stroke-width:0.5;" x1="263" x2="3036" y1="625.541" y2="625.541"></line>
        <g id="H-reference" style="fill:#27AAE1;stroke:none;" transform="matrix(1 0 0 1 339 1126)">
            <path d="M0.976562 0L3.66211 0L29.3457-67.1387L30.0293-67.1387L30.0293-70.459L28.125-70.459ZM11.6699-24.4629L46.9727-24.4629L46.2402-26.709L12.4512-26.709ZM55.127 0L57.7637 0L30.6152-70.459L29.4434-70.459L29.4434-67.1387Z"></path>
        </g>
        <line id="Baseline-M" style="fill:none;stroke:#27AAE1;opacity:1;stroke-width:0.5;" x1="263" x2="3036" y1="1126" y2="1126"></line>
        <line id="Capline-M" style="fill:none;stroke:#27AAE1;opacity:1;stroke-width:0.5;" x1="263" x2="3036" y1="1055.54" y2="1055.54"></line>
        <g id="H-reference" style="fill:#27AAE1;stroke:none;" transform="matrix(1 0 0 1 339 1556)">
            <path d="M0.976562 0L3.66211 0L29.3457-67.1387L30.0293-67.1387L30.0293-70.459L28.125-70.459ZM11.6699-24.4629L46.9727-24.4629L46.2402-26.709L12.4512-26.709ZM55.127 0L57.7637 0L30.6152-70.459L29.4434-70.459L29.4434-67.1387Z"></path>
        </g>
        <line id="Baseline-L" style="fill:none;stroke:#27AAE1;opacity:1;stroke-width:0.5;" x1="263" x2="3036" y1="1556" y2="1556"></line>
        <line id="Capline-L" style="fill:none;stroke:#27AAE1;opacity:1;stroke-width:0.5;" x1="263" x2="3036" y1="1485.54" y2="1485.54"></line>
        <line id="left-margin-Ultralight-S" style="fill:none;stroke:#00AEEF;stroke-width:0.5;opacity:1.0;" x1="514.2036153697968" x2="514.2036153697968" y1="600.784" y2="720.121"></line>
        <line id="right-margin-Ultralight-S" style="fill:none;stroke:#00AEEF;stroke-width:0.5;opacity:1.0;" x1="605.2183817005157" x2="605.2183817005157" y1="600.784" y2="720.121"></line>
        <line id="left-margin-Regular-S" style="fill:none;stroke:#00AEEF;stroke-width:0.5;opacity:1.0;" x1="1399.0904658699035" x2="1399.0904658699035" y1="600.784" y2="720.121"></line>
        <line id="right-margin-Regular-S" style="fill:none;stroke:#00AEEF;stroke-width:0.5;opacity:1.0;" x1="1500.5994755363465" x2="1500.5994755363465" y1="600.784" y2="720.121"></line>
        <line id="left-margin-Black-S" style="fill:none;stroke:#00AEEF;stroke-width:0.5;opacity:1.0;" x1="2871.293068885803" x2="2871.293068885803" y1="600.784" y2="720.121"></line>
        <line id="right-margin-Black-S" style="fill:none;stroke:#00AEEF;stroke-width:0.5;opacity:1.0;" x1="2995.506979942322" x2="2995.506979942322" y1="600.784" y2="720.121"></line>
    </g>
<g id="Symbols"><g id="Ultralight-S" transform="matrix(1,0,0,1,504.96099853515625,606.0205078125)"><path d="M56.94 47.085h-2.19v-17.52h2.19V47.085z"></path><path d="M60.225 63.51h-8.76c-1.81113 0-3.285-1.47387-3.285-3.285v-10.95c0-1.81113 1.47387-3.285 3.285-3.285h8.76c1.81113 0 3.285 1.47387 3.285 3.285v10.95C63.51 62.03613 62.03613 63.51 60.225 63.51zM50.37 49.275v10.95c0 0.6044400000000001 0.49275 1.095 1.095 1.095h8.76c0.6022500000000001 0 1.095-0.49056 1.095-1.095v-10.95c0-0.6044400000000001-0.49275-1.095-1.095-1.095h-8.76C50.86275 48.18 50.37 48.67056 50.37 49.275z"></path><path d="M84.26244 59.129999999999995H73.365v-2.19h10.89744C87.30873 56.94 89.78999999999999 54.42588 89.78999999999999 51.335789999999996v-15.07377C89.78999999999999 33.17412 87.30873 30.66 84.26244 30.66h-13.15971v-2.19h13.15971C88.51760999999999 28.47 91.98 31.965239999999998 91.98 36.26421v15.07377C91.98 55.63476 88.51760999999999 59.129999999999995 84.26244 59.129999999999995z"></path><path d="M60.29288999999999 85.41H38.257110000000004c-4.41723 0-8.31981-2.9652600000000002-9.493649999999999-7.2072899999999995-2.29731-8.29791-6.234929999999999-25.0536-6.7955700000000006-44.064989999999995-0.04599-1.5045300000000001 0.5058900000000001-2.92584 1.5527099999999998-4.00551C24.563039999999997 29.0613 25.95807 28.47 27.44727 28.47h43.65546c1.49139 0 2.8842299999999996 0.5913 3.9266699999999997 1.66221 1.0468199999999999 1.07967 1.5965099999999999 2.5009799999999998 1.5527099999999998 4.00551-0.56064 19.01139-4.498259999999999 35.76708-6.7955700000000006 44.064989999999995C68.61269999999999 82.44474 64.71011999999999 85.41 60.29288999999999 85.41zM71.10273 30.66H27.44727c-0.8935199999999999 0-1.7301 0.35478-2.35425 0.99864-0.63072 0.65043-0.96141 1.5067199999999998-0.9351299999999999 2.4155699999999998 0.55407 18.78144 4.44351 35.344409999999996 6.71235 43.54596C31.785659999999996 80.91611999999999 34.821 83.22 38.257110000000004 83.22c0.00219-0.00219 22.03578-0.00219 22.03578 0 3.43392 0 6.47145-2.30388 7.3846799999999995-5.6020199999999996 2.26884-8.20155 6.1582799999999995-24.764519999999997 6.71235-43.54596 0.02847-0.9088499999999999-0.30441-1.7651400000000002-0.9351299999999999-2.4155699999999998C72.83282999999999 31.014780000000002 71.99625 30.66 71.10273 30.66z"></path><path d="M62.415 24.09c-0.6044400000000001 0-1.095-0.49056-1.095-1.095v-4.38C61.32 18.01056 61.81056 17.52 62.415 17.52S63.51 18.01056 63.51 18.615v4.38C63.51 23.599439999999998 63.019439999999996 24.09 62.415 24.09z"></path><path d="M49.275 24.09c-0.6044400000000001 0-1.095-0.49056-1.095-1.095v-8.76C48.18 13.630560000000001 48.67056 13.14 49.275 13.14S50.37 13.630560000000001 50.37 14.235v8.76C50.37 23.599439999999998 49.879439999999995 24.09 49.275 24.09z"></path><path d="M36.135 24.09c-0.6044400000000001 0-1.095-0.49056-1.095-1.095v-4.38C35.04 18.01056 35.53056 17.52 36.135 17.52S37.23 18.01056 37.23 18.615v4.38C37.23 23.599439999999998 36.73944 24.09 36.135 24.09z"></path></g><g id="Regular-S" transform="matrix(1,0,0,1,1392.564970703125,603.4905078125)"><path d="M60.86 50.120000000000005h-7.16V32.22h7.16V50.120000000000005z"></path><path d="M62.65 71.6h-10.74c-3.94874 0-7.16-3.2112600000000002-7.16-7.16v-12.530000000000001c0-3.94874 3.2112600000000002-7.16 7.16-7.16h10.74c3.94874 0 7.16 3.2112600000000002 7.16 7.16v12.530000000000001C69.81 68.38874000000001 66.59874 71.6 62.65 71.6zM51.910000000000004 53.7v8.95c0 0.9880800000000001 0.8019200000000001 1.79 1.79 1.79h7.16c0.9880800000000001 0 1.79-0.8019200000000001 1.79-1.79v-8.95c0-0.9880800000000001-0.8019200000000001-1.79-1.79-1.79h-7.16C52.71192 51.910000000000004 51.910000000000004 52.71192 51.910000000000004 53.7z"></path><path d="M89.5 66.23h-13.425v-7.16H89.5c1.97437 0 3.58-1.6056300000000001 3.58-3.58v-16.11c0-1.97437-1.6056300000000001-3.58-3.58-3.58h-12.530000000000001v-7.16h12.530000000000001c5.92311 0 10.74 4.81689 10.74 10.74v16.11C100.24000000000001 61.413109999999996 95.42311 66.23 89.5 66.23z"></path><path d="M66.25864 93.08H37.56136c-4.811520000000001 0-9.066350000000002-3.23274-10.34799-7.861680000000001-2.5865500000000003-9.35275-7.0006900000000005-28.1925-7.480410000000001-49.29302-0.044750000000000005-1.92246 0.67483-3.7428900000000005 2.02449-5.12298C23.09995 29.4276 24.97229 28.64 26.89296 28.64h50.03229c1.9206699999999999 0 3.7930100000000007 0.7876 5.135510000000001 2.16232 1.34966 1.38009 2.0692399999999997 3.20052 2.02449 5.12298-0.47972000000000004 21.10231-4.89207 39.94027-7.480410000000001 49.29302C75.32499000000001 89.84726 71.07016 93.08 66.25864 93.08zM75.07797 35.7642l-46.33594 0.03401c-0.4922500000000001 0-0.9397500000000001 0.20048000000000002-1.2637399999999999 0.5226799999999999-0.34189 0.33831-0.54953 0.81266-0.5316299999999999 1.33176 0.66588 19.53606 4.7435 36.89369 7.167159999999999 45.65216C34.54342 84.85674 35.946780000000004 85.92 37.55778 85.92c6.377770000000001 0 22.32488 0 28.702650000000002 0 1.611 0 3.01436-1.0632599999999999 3.44396-2.61519 2.4236600000000004-8.758469999999999 6.50128-26.1161 7.17074-45.68617 0.0179-0.5012000000000001-0.17542000000000002-0.96123-0.49762000000000006-1.29775C76.05173 35.97721 75.58812 35.7642 75.07797 35.7642z"></path><path d="M66.23 23.27c-1.9761600000000001 0-3.58-1.6038400000000002-3.58-3.58V14.32c0-1.9761600000000001 1.6038400000000002-3.58 3.58-3.58s3.58 1.6038400000000002 3.58 3.58v5.37C69.81 21.666159999999998 68.20616 23.27 66.23 23.27z"></path><path d="M51.910000000000004 23.27c-1.9761600000000001 0-3.58-1.6038400000000002-3.58-3.58V8.95c0-1.9761600000000001 1.6038400000000002-3.58 3.58-3.58s3.58 1.6038400000000002 3.58 3.58v10.74C55.49 21.666159999999998 53.88616 23.27 51.910000000000004 23.27z"></path><path d="M37.59 23.27c-1.9761600000000001 0-3.58-1.6038400000000002-3.58-3.58V14.32c0-1.9761600000000001 1.6038400000000002-3.58 3.58-3.58s3.58 1.6038400000000002 3.58 3.58v5.37C41.17 21.666159999999998 39.566159999999996 23.27 37.59 23.27z"></path></g><g id="Black-S" transform="matrix(1,0,0,1,2870.4000244140625,597.7705078125)"><path d="M64.67475 55.818h-7V34.0515h7V55.818z"></path><path d="M68.25 80.62775h-14c-3.8605 0-7-3.1395-7-7V56c0-3.8605 3.1395-7 7-7h14c3.8605 0 7 3.1395 7 7v17.62775C75.25 77.48825000000001 72.1105 80.62775 68.25 80.62775zM54.25 57.75v14.12775c0 0.9660000000000001 0.784 1.75 1.75 1.75h10.5c0.9660000000000001 0 1.75-0.784 1.75-1.75V57.75c0-0.9660000000000001-0.784-1.75-1.75-1.75h-10.5C55.034 56 54.25 56.784 54.25 57.75z"></path><path d="M101.542 77.2555h-16.32575v-14h16.32575c0.9415 0 1.708-0.7665 1.708-1.708V41.958C103.25 41.0165 102.48349999999999 40.25 101.542 40.25H84.875v-14h16.666999999999998C110.2045 26.25 117.25 33.2955 117.25 41.958v19.591250000000002C117.25 70.21 110.2045 77.2555 101.542 77.2555z"></path><path d="M73.66799999999999 110.25H38.286500000000004c-6.1354999999999995 0-11.49925-3.93225-13.35075-9.78425-3.08-9.733500000000001-10.30925-35.413000000000004-10.89725-63.5285-0.0665-3.1430000000000002 1.246-6.093500000000001 3.6750000000000003-8.17775 1.9844999999999997-1.7045 7.194249999999999-2.51125 7.196-2.5095l61.85025 0c0.00175-0.00175 5.19925 0.80325 7.1785000000000005 2.5025 2.42725 2.0825 3.74675 5.03475 3.6820000000000004 8.1795-0.5705 28.0455-7.5809999999999995 53.7005-10.57 63.427C85.23375 106.27575 79.856 110.25 73.66799999999999 110.25zM79.828 40.25H31.841250000000002c-1.0027499999999998 0-1.9075000000000002 0.42-2.548 1.092-0.6387499999999999 0.67025-1.0114999999999998 1.5925-0.9485000000000001 2.5935 1.4087500000000002 22.302 6.7829999999999995 42.0945 9.556750000000001 51.0825 0.2275 0.735 0.90125 1.2285 1.67125 1.2285 0.00175 0.00175 32.80025 0.0035 32.802 0.00525 0.77525 0 1.45425-0.5005 1.67475-1.2425 2.6915-9.00025 7.908250000000001-28.796249999999997 9.275-51.07725 0.059500000000000004-0.9695-0.28875-1.86375-0.8925000000000001-2.527C81.78975 40.69625 80.8605 40.25 79.828 40.25z"></path><path d="M71.75 21c-2.89975 0-5.25-2.35025-5.25-5.25V10.5c0-2.89975 2.35025-5.25 5.25-5.25s5.25 2.35025 5.25 5.25v5.25C77 18.64975 74.64975 21 71.75 21z"></path><path d="M56 21c-2.89975 0-5.25-2.35025-5.25-5.25V5.25c0-2.89975 2.35025-5.25 5.25-5.25s5.25 2.35025 5.25 5.25v10.5C61.25 18.64975 58.89975 21 56 21z"></path><path d="M40.25 21c-2.89975 0-5.25-2.35025-5.25-5.25V10.5c0-2.89975 2.35025-5.25 5.25-5.25s5.25 2.35025 5.25 5.25v5.25C45.5 18.64975 43.14975 21 40.25 21z"></path></g></g></svg>