<svg version="1.1" xmlns="http://www.w3.org/2000/svg" xmlns:xlink="http://www.w3.org/1999/xlink" width="3300" height="2200" viewBox="0 0 3300 2200">
    <g id="Notes">
        <rect height="2200" id="artboard" style="fill:white;opacity:1" width="3300" x="0" y="0"></rect>
        <line style="fill:none;stroke:black;opacity:1;stroke-width:0.5;" x1="263" x2="3036" y1="292" y2="292"></line>
        <text style="stroke:none;fill:black;font-family:sans-serif;font-size:13;font-weight:bold;" transform="matrix(1 0 0 1 263 322)">Weight/Scale Variations</text>
        <text style="stroke:none;fill:black;font-family:sans-serif;font-size:13;text-anchor:middle;" transform="matrix(1 0 0 1 559.711 322)">Ultralight</text>
        <text style="stroke:none;fill:black;font-family:sans-serif;font-size:13;text-anchor:middle;" transform="matrix(1 0 0 1 856.422 322)">Thin</text>
        <text style="stroke:none;fill:black;font-family:sans-serif;font-size:13;text-anchor:middle;" transform="matrix(1 0 0 1 1153.13 322)">Light</text>
        <text style="stroke:none;fill:black;font-family:sans-serif;font-size:13;text-anchor:middle;" transform="matrix(1 0 0 1 1449.84 322)">Regular</text>
        <text style="stroke:none;fill:black;font-family:sans-serif;font-size:13;text-anchor:middle;" transform="matrix(1 0 0 1 1746.56 322)">Medium</text>
        <text style="stroke:none;fill:black;font-family:sans-serif;font-size:13;text-anchor:middle;" transform="matrix(1 0 0 1 2043.27 322)">Semibold</text>
        <text style="stroke:none;fill:black;font-family:sans-serif;font-size:13;text-anchor:middle;" transform="matrix(1 0 0 1 2339.98 322)">Bold</text>
        <text style="stroke:none;fill:black;font-family:sans-serif;font-size:13;text-anchor:middle;" transform="matrix(1 0 0 1 2636.69 322)">Heavy</text>
        <text style="stroke:none;fill:black;font-family:sans-serif;font-size:13;text-anchor:middle;" transform="matrix(1 0 0 1 2933.4 322)">Black</text>
        <line style="fill:none;stroke:black;opacity:1;stroke-width:0.5;" x1="263" x2="3036" y1="1903" y2="1903"></line>
        <g transform="matrix(1 0 0 1 263 1933)">
            <path d="M9.24805 0.830078Q10.8691 0.830078 12.2949 0.214844Q13.7207-0.400391 14.8096-1.49414Q15.8984-2.58789 16.5186-4.01367Q17.1387-5.43945 17.1387-7.05078Q17.1387-8.66211 16.5186-10.0879Q15.8984-11.5137 14.8047-12.6074Q13.7109-13.7012 12.2852-14.3164Q10.8594-14.9316 9.23828-14.9316Q7.62695-14.9316 6.20117-14.3164Q4.77539-13.7012 3.69141-12.6074Q2.60742-11.5137 1.9873-10.0879Q1.36719-8.66211 1.36719-7.05078Q1.36719-5.43945 1.9873-4.01367Q2.60742-2.58789 3.69629-1.49414Q4.78516-0.400391 6.21094 0.214844Q7.63672 0.830078 9.24805 0.830078ZM9.24805-0.654297Q7.91992-0.654297 6.7627-1.14746Q5.60547-1.64062 4.73145-2.51953Q3.85742-3.39844 3.36426-4.56055Q2.87109-5.72266 2.87109-7.05078Q2.87109-8.37891 3.35938-9.54102Q3.84766-10.7031 4.72168-11.582Q5.5957-12.4609 6.75293-12.9541Q7.91016-13.4473 9.23828-13.4473Q10.5762-13.4473 11.7334-12.9541Q12.8906-12.4609 13.7695-11.582Q14.6484-10.7031 15.1465-9.54102Q15.6445-8.37891 15.6445-7.05078Q15.6445-5.72266 15.1514-4.56055Q14.6582-3.39844 13.7842-2.51953Q12.9102-1.64062 11.748-1.14746Q10.5859-0.654297 9.24805-0.654297ZM5.83984-7.04102Q5.83984-6.71875 6.04492-6.51855Q6.25-6.31836 6.5918-6.31836L8.50586-6.31836L8.50586-4.39453Q8.50586-4.0625 8.70605-3.85742Q8.90625-3.65234 9.22852-3.65234Q9.56055-3.65234 9.76562-3.85742Q9.9707-4.0625 9.9707-4.39453L9.9707-6.31836L11.8945-6.31836Q12.2266-6.31836 12.4316-6.51855Q12.6367-6.71875 12.6367-7.04102Q12.6367-7.37305 12.4316-7.57812Q12.2266-7.7832 11.8945-7.7832L9.9707-7.7832L9.9707-9.69727Q9.9707-10.0391 9.76562-10.2441Q9.56055-10.4492 9.22852-10.4492Q8.90625-10.4492 8.70605-10.2441Q8.50586-10.0391 8.50586-9.69727L8.50586-7.7832L6.5918-7.7832Q6.25-7.7832 6.04492-7.57812Q5.83984-7.37305 5.83984-7.04102Z"></path>
        </g>
        <g transform="matrix(1 0 0 1 281.867 1933)">
            <path d="M11.709 2.91016Q13.75 2.91016 15.5518 2.12891Q17.3535 1.34766 18.7305-0.0292969Q20.1074-1.40625 20.8887-3.20801Q21.6699-5.00977 21.6699-7.05078Q21.6699-9.0918 20.8887-10.8936Q20.1074-12.6953 18.7305-14.0723Q17.3535-15.4492 15.5469-16.2305Q13.7402-17.0117 11.6992-17.0117Q9.6582-17.0117 7.85645-16.2305Q6.05469-15.4492 4.68262-14.0723Q3.31055-12.6953 2.5293-10.8936Q1.74805-9.0918 1.74805-7.05078Q1.74805-5.00977 2.5293-3.20801Q3.31055-1.40625 4.6875-0.0292969Q6.06445 1.34766 7.86621 2.12891Q9.66797 2.91016 11.709 2.91016ZM11.709 1.25Q9.98047 1.25 8.47656 0.605469Q6.97266-0.0390625 5.83496-1.17676Q4.69727-2.31445 4.05762-3.81836Q3.41797-5.32227 3.41797-7.05078Q3.41797-8.7793 4.05762-10.2832Q4.69727-11.7871 5.83008-12.9297Q6.96289-14.0723 8.4668-14.7119Q9.9707-15.3516 11.6992-15.3516Q13.4277-15.3516 14.9316-14.7119Q16.4355-14.0723 17.5781-12.9297Q18.7207-11.7871 19.3652-10.2832Q20.0098-8.7793 20.0098-7.05078Q20.0098-5.32227 19.3701-3.81836Q18.7305-2.31445 17.5928-1.17676Q16.4551-0.0390625 14.9463 0.605469Q13.4375 1.25 11.709 1.25ZM7.39258-7.04102Q7.39258-6.68945 7.62695-6.46484Q7.86133-6.24023 8.23242-6.24023L10.8789-6.24023L10.8789-3.57422Q10.8789-3.21289 11.1035-2.9834Q11.3281-2.75391 11.6797-2.75391Q12.0508-2.75391 12.2852-2.9834Q12.5195-3.21289 12.5195-3.57422L12.5195-6.24023L15.1758-6.24023Q15.5371-6.24023 15.7715-6.46484Q16.0059-6.68945 16.0059-7.04102Q16.0059-7.41211 15.7715-7.6416Q15.5371-7.87109 15.1758-7.87109L12.5195-7.87109L12.5195-10.5176Q12.5195-10.8984 12.2852-11.1279Q12.0508-11.3574 11.6797-11.3574Q11.3281-11.3574 11.1035-11.1279Q10.8789-10.8984 10.8789-10.5176L10.8789-7.87109L8.23242-7.87109Q7.85156-7.87109 7.62207-7.6416Q7.39258-7.41211 7.39258-7.04102Z"></path>
        </g>
        <g transform="matrix(1 0 0 1 305.646 1933)">
            <path d="M14.9707 5.66406Q17.0605 5.66406 18.96 5.01465Q20.8594 4.36523 22.4512 3.19336Q24.043 2.02148 25.2197 0.429688Q26.3965-1.16211 27.0459-3.06641Q27.6953-4.9707 27.6953-7.05078Q27.6953-9.14062 27.0459-11.04Q26.3965-12.9395 25.2197-14.5312Q24.043-16.123 22.4512-17.2998Q20.8594-18.4766 18.9551-19.126Q17.0508-19.7754 14.9609-19.7754Q12.8711-19.7754 10.9717-19.126Q9.07227-18.4766 7.48535-17.2998Q5.89844-16.123 4.72168-14.5312Q3.54492-12.9395 2.90039-11.04Q2.25586-9.14062 2.25586-7.05078Q2.25586-4.9707 2.90527-3.06641Q3.55469-1.16211 4.72656 0.429688Q5.89844 2.02148 7.49023 3.19336Q9.08203 4.36523 10.9814 5.01465Q12.8809 5.66406 14.9707 5.66406ZM14.9707 3.84766Q13.1641 3.84766 11.5283 3.2959Q9.89258 2.74414 8.53516 1.74805Q7.17773 0.751953 6.17676-0.610352Q5.17578-1.97266 4.62891-3.6084Q4.08203-5.24414 4.08203-7.05078Q4.08203-8.86719 4.62891-10.5029Q5.17578-12.1387 6.17188-13.501Q7.16797-14.8633 8.52539-15.8594Q9.88281-16.8555 11.5186-17.4023Q13.1543-17.9492 14.9609-17.9492Q16.7773-17.9492 18.4131-17.4023Q20.0488-16.8555 21.4111-15.8594Q22.7734-14.8633 23.7695-13.501Q24.7656-12.1387 25.3174-10.5029Q25.8691-8.86719 25.8691-7.05078Q25.8789-5.24414 25.332-3.6084Q24.7852-1.97266 23.7842-0.610352Q22.7832 0.751953 21.4209 1.74805Q20.0586 2.74414 18.4229 3.2959Q16.7871 3.84766 14.9707 3.84766ZM9.45312-7.04102Q9.45312-6.66016 9.71191-6.41113Q9.9707-6.16211 10.3711-6.16211L14.0625-6.16211L14.0625-2.46094Q14.0625-2.06055 14.3115-1.80664Q14.5605-1.55273 14.9414-1.55273Q15.3516-1.55273 15.6055-1.80664Q15.8594-2.06055 15.8594-2.46094L15.8594-6.16211L19.5605-6.16211Q19.9609-6.16211 20.2148-6.41113Q20.4688-6.66016 20.4688-7.04102Q20.4688-7.45117 20.2148-7.70508Q19.9609-7.95898 19.5605-7.95898L15.8594-7.95898L15.8594-11.6504Q15.8594-12.0605 15.6055-12.3145Q15.3516-12.5684 14.9414-12.5684Q14.5605-12.5684 14.3115-12.3096Q14.0625-12.0508 14.0625-11.6504L14.0625-7.95898L10.3711-7.95898Q9.96094-7.95898 9.70703-7.70508Q9.45312-7.45117 9.45312-7.04102Z"></path>
        </g>
        <text style="stroke:none;fill:black;font-family:sans-serif;font-size:13;font-weight:bold;" transform="matrix(1 0 0 1 263 1953)">Design Variations</text>
        <text style="stroke:none;fill:black;font-family:sans-serif;font-size:13;" transform="matrix(1 0 0 1 263 1971)">Symbols are supported in up to nine weights and three scales.</text>
        <text style="stroke:none;fill:black;font-family:sans-serif;font-size:13;" transform="matrix(1 0 0 1 263 1989)">For optimal layout with text and other symbols, vertically align</text>
        <text style="stroke:none;fill:black;font-family:sans-serif;font-size:13;" transform="matrix(1 0 0 1 263 2007)">symbols with the adjacent text.</text>
        <line style="fill:none;stroke:#00AEEF;stroke-width:0.5;opacity:1.0;" x1="776" x2="776" y1="1919" y2="1933"></line>
        <g transform="matrix(1 0 0 1 776 1933)">
            <path d="M3.31055 0.15625Q3.70117 0.15625 3.91602-0.00976562Q4.13086-0.175781 4.26758-0.585938L5.52734-4.0332L11.2891-4.0332L12.5488-0.585938Q12.6855-0.175781 12.9004-0.00976562Q13.1152 0.15625 13.4961 0.15625Q13.8867 0.15625 14.1162-0.0585938Q14.3457-0.273438 14.3457-0.644531Q14.3457-0.869141 14.2383-1.17188L9.6582-13.3691Q9.48242-13.8184 9.17969-14.043Q8.87695-14.2676 8.4082-14.2676Q7.5-14.2676 7.17773-13.3789L2.59766-1.16211Q2.49023-0.859375 2.49023-0.634766Q2.49023-0.263672 2.70996-0.0537109Q2.92969 0.15625 3.31055 0.15625ZM6.00586-5.51758L8.37891-12.0898L8.42773-12.0898L10.8008-5.51758Z"></path>
        </g>
        <line style="fill:none;stroke:#00AEEF;stroke-width:0.5;opacity:1.0;" x1="793.197" x2="793.197" y1="1919" y2="1933"></line>
        <text style="stroke:none;fill:black;font-family:sans-serif;font-size:13;font-weight:bold;" transform="matrix(1 0 0 1 776 1953)">Margins</text>
        <text style="stroke:none;fill:black;font-family:sans-serif;font-size:13;" transform="matrix(1 0 0 1 776 1971)">Leading and trailing margins on the left and right side of each symbol</text>
        <text style="stroke:none;fill:black;font-family:sans-serif;font-size:13;" transform="matrix(1 0 0 1 776 1989)">can be adjusted by modifying the x-location of the margin guidelines.</text>
        <text style="stroke:none;fill:black;font-family:sans-serif;font-size:13;" transform="matrix(1 0 0 1 776 2007)">Modifications are automatically applied proportionally to all</text>
        <text style="stroke:none;fill:black;font-family:sans-serif;font-size:13;" transform="matrix(1 0 0 1 776 2025)">scales and weights.</text>
        <g transform="matrix(1 0 0 1 1289 1933)">
            <path d="M2.8418 1.86523L4.54102 3.57422Q5.18555 4.22852 5.90332 4.17969Q6.62109 4.13086 7.31445 3.35938L18.0078-8.42773L17.041-9.4043L6.42578 2.27539Q6.16211 2.57812 5.89355 2.61719Q5.625 2.65625 5.27344 2.30469L4.10156 1.14258Q3.75 0.791016 3.79395 0.522461Q3.83789 0.253906 4.14062-0.0195312L15.6152-10.8203L14.6387-11.7871L3.04688-0.898438Q2.30469-0.214844 2.25098 0.498047Q2.19727 1.21094 2.8418 1.86523ZM9.25781-16.3281Q8.94531-16.0254 8.90625-15.6348Q8.86719-15.2441 9.04297-14.9512Q9.21875-14.6777 9.55566-14.541Q9.89258-14.4043 10.3809-14.5215Q11.4746-14.7754 12.5977-14.7314Q13.7207-14.6875 14.7949-13.9844L14.209-12.5293Q13.9551-11.9043 14.0674-11.4404Q14.1797-10.9766 14.5801-10.5664L16.875-8.25195Q17.2363-7.88086 17.5781-7.82227Q17.9199-7.76367 18.3398-7.8418L19.4043-8.03711L20.0684-7.36328L20.0293-6.80664Q20-6.43555 20.1221-6.12305Q20.2441-5.81055 20.6055-5.44922L21.3672-4.70703Q21.7285-4.3457 22.1533-4.33105Q22.5781-4.31641 22.9297-4.66797L25.8398-7.58789Q26.1914-7.93945 26.1816-8.35449Q26.1719-8.76953 25.8105-9.13086L25.0391-9.89258Q24.6875-10.2539 24.3799-10.3857Q24.0723-10.5176 23.7109-10.4883L23.1348-10.4395L22.4902-11.0742L22.7344-12.1973Q22.832-12.6172 22.6953-12.9834Q22.5586-13.3496 22.1191-13.7891L19.9219-15.9766Q18.6719-17.2168 17.2607-17.8369Q15.8496-18.457 14.4189-18.4814Q12.9883-18.5059 11.665-17.959Q10.3418-17.4121 9.25781-16.3281ZM10.752-15.957Q11.6602-16.6211 12.7002-16.9043Q13.7402-17.1875 14.8047-17.085Q15.8691-16.9824 16.8701-16.5137Q17.8711-16.0449 18.7012-15.2051L21.1328-12.793Q21.3086-12.6172 21.3525-12.4512Q21.3965-12.2852 21.3379-12.0312L21.0156-10.5469L22.5195-9.0625L23.5059-9.12109Q23.6914-9.13086 23.7891-9.09668Q23.8867-9.0625 24.0332-8.91602L24.6094-8.33984L22.168-5.89844L21.5918-6.47461Q21.4453-6.62109 21.4062-6.71875Q21.3672-6.81641 21.377-7.01172L21.4453-7.98828L19.9512-9.47266L18.4277-9.21875Q18.1836-9.16992 18.042-9.2041Q17.9004-9.23828 17.7148-9.41406L15.7129-11.416Q15.5176-11.5918 15.4932-11.7529Q15.4688-11.9141 15.5859-12.1875L16.4648-14.2773Q15.293-15.3711 13.8281-15.791Q12.3633-16.2109 10.8398-15.7617Q10.7227-15.7324 10.6885-15.8057Q10.6543-15.8789 10.752-15.957Z"></path>
        </g>
        <text style="stroke:none;fill:black;font-family:sans-serif;font-size:13;font-weight:bold;" transform="matrix(1 0 0 1 1289 1953)">Exporting</text>
        <text style="stroke:none;fill:black;font-family:sans-serif;font-size:13;" transform="matrix(1 0 0 1 1289 1971)">Symbols should be outlined when exporting to ensure the</text>
        <text style="stroke:none;fill:black;font-family:sans-serif;font-size:13;" transform="matrix(1 0 0 1 1289 1989)">design is preserved when submitting to Xcode.</text>
        <text id="template-version" style="stroke:none;fill:black;font-family:sans-serif;font-size:13;text-anchor:end;" transform="matrix(1 0 0 1 3036 1933)">Template v.3.0</text>
        <text style="stroke:none;fill:black;font-family:sans-serif;font-size:13;text-anchor:end;" transform="matrix(1 0 0 1 3036 1951)">Requires Xcode 13 or greater</text>
        <text id="descriptive-name" style="stroke:none;fill:black;font-family:sans-serif;font-size:13;text-anchor:end;" transform="matrix(1 0 0 1 3036 1969)">Generated from custom.pencil.circle</text>
        <text style="stroke:none;fill:black;font-family:sans-serif;font-size:13;text-anchor:end;" transform="matrix(1 0 0 1 3036 1987)">Typeset at 100 points</text>
        <text style="stroke:none;fill:black;font-family:sans-serif;font-size:13;" transform="matrix(1 0 0 1 263 726)">Small</text>
        <text style="stroke:none;fill:black;font-family:sans-serif;font-size:13;" transform="matrix(1 0 0 1 263 1156)">Medium</text>
        <text style="stroke:none;fill:black;font-family:sans-serif;font-size:13;" transform="matrix(1 0 0 1 263 1586)">Large</text>
    </g>
    <g id="Guides">
        <g id="H-reference" style="fill:#27AAE1;stroke:none;" transform="matrix(1 0 0 1 339 696)">
            <path d="M0.976562 0L3.66211 0L29.3457-67.1387L30.0293-67.1387L30.0293-70.459L28.125-70.459ZM11.6699-24.4629L46.9727-24.4629L46.2402-26.709L12.4512-26.709ZM55.127 0L57.7637 0L30.6152-70.459L29.4434-70.459L29.4434-67.1387Z"></path>
        </g>
        <line id="Baseline-S" style="fill:none;stroke:#27AAE1;opacity:1;stroke-width:0.5;" x1="263" x2="3036" y1="696" y2="696"></line>
        <line id="Capline-S" style="fill:none;stroke:#27AAE1;opacity:1;stroke-width:0.5;" x1="263" x2="3036" y1="625.541" y2="625.541"></line>
        <g id="H-reference" style="fill:#27AAE1;stroke:none;" transform="matrix(1 0 0 1 339 1126)">
            <path d="M0.976562 0L3.66211 0L29.3457-67.1387L30.0293-67.1387L30.0293-70.459L28.125-70.459ZM11.6699-24.4629L46.9727-24.4629L46.2402-26.709L12.4512-26.709ZM55.127 0L57.7637 0L30.6152-70.459L29.4434-70.459L29.4434-67.1387Z"></path>
        </g>
        <line id="Baseline-M" style="fill:none;stroke:#27AAE1;opacity:1;stroke-width:0.5;" x1="263" x2="3036" y1="1126" y2="1126"></line>
        <line id="Capline-M" style="fill:none;stroke:#27AAE1;opacity:1;stroke-width:0.5;" x1="263" x2="3036" y1="1055.54" y2="1055.54"></line>
        <g id="H-reference" style="fill:#27AAE1;stroke:none;" transform="matrix(1 0 0 1 339 1556)">
            <path d="M0.976562 0L3.66211 0L29.3457-67.1387L30.0293-67.1387L30.0293-70.459L28.125-70.459ZM11.6699-24.4629L46.9727-24.4629L46.2402-26.709L12.4512-26.709ZM55.127 0L57.7637 0L30.6152-70.459L29.4434-70.459L29.4434-67.1387Z"></path>
        </g>
        <line id="Baseline-L" style="fill:none;stroke:#27AAE1;opacity:1;stroke-width:0.5;" x1="263" x2="3036" y1="1556" y2="1556"></line>
        <line id="Capline-L" style="fill:none;stroke:#27AAE1;opacity:1;stroke-width:0.5;" x1="263" x2="3036" y1="1485.54" y2="1485.54"></line>
        <line id="left-margin-Ultralight-S" style="fill:none;stroke:#00AEEF;stroke-width:0.5;opacity:1.0;" x1="509.7914120674133" x2="509.7914120674133" y1="600.784" y2="720.121"></line>
        <line id="right-margin-Ultralight-S" style="fill:none;stroke:#00AEEF;stroke-width:0.5;opacity:1.0;" x1="609.6305850028991" x2="609.6305850028991" y1="600.784" y2="720.121"></line>
        <line id="left-margin-Regular-S" style="fill:none;stroke:#00AEEF;stroke-width:0.5;opacity:1.0;" x1="1398.1767665481568" x2="1398.1767665481568" y1="600.784" y2="720.121"></line>
        <line id="right-margin-Regular-S" style="fill:none;stroke:#00AEEF;stroke-width:0.5;opacity:1.0;" x1="1501.5131748580932" x2="1501.5131748580932" y1="600.784" y2="720.121"></line>
        <line id="left-margin-Black-S" style="fill:none;stroke:#00AEEF;stroke-width:0.5;opacity:1.0;" x1="2877.3995871543884" x2="2877.3995871543884" y1="600.784" y2="720.121"></line>
        <line id="right-margin-Black-S" style="fill:none;stroke:#00AEEF;stroke-width:0.5;opacity:1.0;" x1="2989.4004616737366" x2="2989.4004616737366" y1="600.784" y2="720.121"></line>
    </g>
<g id="Symbols"><g id="Ultralight-S" transform="matrix(1,0,0,1,504.96099853515625,606.0205078125)"><path d="M54.71058 78.82467c-4.585859999999999 0-9.19143-1.2964799999999999-13.21665-3.95514-0.5037-0.33288-0.64386-1.0117800000000001-0.31098-1.5176699999999999 0.33288-0.5037 1.0117800000000001-0.64167 1.5176699999999999-0.31098 8.6286 5.698379999999999 20.211509999999997 4.51797 27.53487-2.8053899999999996 7.40877-7.410959999999999 8.53224-19.074900000000003 2.66961-27.74073-0.33945-0.50151-0.20804999999999998-1.1826 0.29346-1.5198599999999998 0.50151-0.34164 1.1826-0.20586 1.5198599999999998 0.29346 6.4495499999999995 9.53088 5.214389999999999 22.364279999999997-2.9346 30.515459999999997C67.14321 76.42662 60.94551 78.82467 54.71058 78.82467z"></path><path d="M35.68824 68.71124999999999c-0.35259 0-0.69642-0.16863-0.9088499999999999-0.4818-6.4495499999999995-9.53088-5.214389999999999-22.364279999999997 2.9346-30.515459999999997 8.05263-8.05701 20.79186-9.35568 30.28989-3.08571 0.5037 0.33288 0.64386 1.0117800000000001 0.31098 1.5176699999999999-0.33288 0.5037-1.0117800000000001 0.6394799999999999-1.5176699999999999 0.31098-8.63079-5.70057-20.211509999999997-4.52016-27.53487 2.8053899999999996-7.40877 7.410959999999999-8.53224 19.074900000000003-2.66961 27.74073 0.33945 0.50151 0.20804999999999998 1.1826-0.29346 1.5198599999999998C36.113099999999996 68.65212 35.89848 68.71124999999999 35.68824 68.71124999999999z"></path><path d="M93.72323999999999 55.89537l-3.3726 3.6616799999999996c-0.20148 1.4935800000000001-0.48618 2.96088-0.8628600000000001 4.390949999999999l1.71039 4.658129999999999c0.30441 0.82782-0.07884 1.74981-0.87819 2.11992l-4.51359 2.0870699999999998c-0.7533599999999999 1.28991-1.57899 2.53164-2.48127 3.71205l-0.20148 4.97349c-0.03504 0.88038-0.74241 1.5855599999999999-1.62279 1.62279l-4.97349 0.20148c-1.18041 0.90228-2.42214 1.72791-3.71205 2.48127l-2.0870699999999998 4.51359c-0.37011 0.79935-1.2920999999999998 1.1826-2.11992 0.87819L63.948 89.4834c-1.43007 0.37667999999999996-2.89737 0.66357-4.390949999999999 0.8628600000000001l-3.65949 3.37479c-0.6482399999999999 0.59787-1.64688 0.59787-2.2929299999999997 0l-3.65949-3.37479c-1.4935800000000001-0.20148-2.96088-0.48618-4.390949999999999-0.8628600000000001l-4.658129999999999 1.71039c-0.82782 0.30441-1.74981-0.07884-2.11992-0.87819l-2.0870699999999998-4.51359c-1.28991-0.7533599999999999-2.53164-1.57899-3.71205-2.48127l-4.97349-0.20148c-0.88038-0.03504-1.5855599999999999-0.74241-1.62279-1.62279l-0.20148-4.97349c-0.90228-1.18041-1.72791-2.42214-2.48127-3.71205L19.1844 70.72385999999999c-0.79935-0.37011-1.1826-1.2920999999999998-0.87819-2.11992L20.0166 63.948c-0.37667999999999996-1.43007-0.66357-2.89737-0.8628600000000001-4.390949999999999l-3.37479-3.65949c-0.59787-0.6482399999999999-0.59787-1.64688 0-2.2929299999999997l3.37479-3.65949c0.20148-1.4935800000000001 0.48618-2.96088 0.8628600000000001-4.390949999999999l-1.71039-4.658129999999999c-0.30441-0.82782 0.07884-1.74981 0.87819-2.11992l4.51359-2.08488c0.7533599999999999-1.28991 1.57899-2.53164 2.48127-3.71205l0.20148-4.97349c0.03504-0.88038 0.74241-1.5855599999999999 1.62279-1.62279l4.97349-0.20148c1.18041-0.90228 2.42214-1.72791 3.71205-2.48127l2.0870699999999998-4.51359c0.37011-0.79935 1.2920999999999998-1.1826 2.11992-0.87819L45.552 20.0166c1.43007-0.37667999999999996 2.89737-0.66357 4.390949999999999-0.8628600000000001l3.6616799999999996-3.37479c0.6482399999999999-0.59787 1.64469-0.59787 2.2929299999999997 0l3.65949 3.37479c1.4935800000000001 0.20148 2.96088 0.48618 4.390949999999999 0.8628600000000001l4.658129999999999-1.71039c0.82782-0.30441 1.74981 0.07884 2.11992 0.87819l2.08488 4.51359c1.28991 0.7533599999999999 2.53164 1.57899 3.71205 2.48127l4.97349 0.20148c0.88038 0.03504 1.5855599999999999 0.74241 1.62279 1.62279l0.20148 4.97349c0.90228 1.18041 1.72791 2.42214 2.48127 3.71205l4.51359 2.0870699999999998c0.79935 0.37011 1.1826 1.2920999999999998 0.87819 2.11992L89.4834 45.552c0.37667999999999996 1.43007 0.66357 2.89737 0.8628600000000001 4.390949999999999l3.37479 3.65949C94.31891999999999 54.250679999999996 94.31891999999999 55.24713 93.72323999999999 55.89537zM54.75 85.41c16.93308 0 30.66-13.72692 30.66-30.66s-13.72692-30.66-30.66-30.66-30.66 13.72692-30.66 30.66S37.81692 85.41 54.75 85.41z"></path></g><g id="Regular-S" transform="matrix(1,0,0,1,1392.564970703125,603.4905078125)"><path d="M57.32475 80.57864c-3.15935 0-6.35092-0.64798-9.39213-1.98153-1.81148-0.7929700000000001-2.63667-2.90517-1.84191-4.71486 0.79476-1.81148 2.91412-2.63309 4.71665-1.84191 6.12359 2.6832100000000003 13.13681 1.36219 17.8642-3.36699s6.0502-11.74061 3.3651999999999997-17.8642c-0.7929700000000001-1.81148 0.03222-3.92189 1.84191-4.71486 1.8043200000000001-0.79118 3.92189 0.030430000000000002 4.71665 1.84191 3.87535 8.84439 1.9690000000000003 18.97221-4.86164 25.80106C69.25331 78.21584 63.35347 80.57864 57.32475 80.57864z"></path><path d="M39.24575 68.77001c-1.3783 0-2.69216-0.80013-3.28107-2.1444199999999998-3.87535-8.84439-1.9690000000000003-18.97221 4.86164-25.80106 6.82706-6.83064 16.956670000000003-8.742360000000001 25.80106-4.86164 1.81148 0.7929700000000001 2.63667 2.90517 1.84191 4.71486-0.79476 1.81327-2.9105399999999997 2.63846-4.71665 1.84191-6.1218-2.68142-13.13681-1.36219-17.8642 3.36699s-6.0502 11.74061-3.3651999999999997 17.8642c0.7929700000000001 1.81148-0.03222 3.92189-1.84191 4.71486C40.21414 68.67335 39.72547 68.77001 39.24575 68.77001z"></path><path d="M97.58722 59.487069999999996l-2.65099 2.87653c-0.21301 1.58057-0.51552 3.1325000000000003-0.9129 4.64505l1.3425 3.6569700000000003c0.58533 1.59131-0.15036000000000002 3.36699-1.68976 4.07941l-3.54778 1.6396400000000002c-0.79655 1.3657700000000002-1.6700700000000002 2.67784-2.6259300000000003 3.92726l-0.15752 3.9075699999999998c-0.06802 1.69513-1.42663 3.05374-3.12176 3.12176l-3.9075699999999998 0.15752c-1.24942 0.9540700000000001-2.56149 1.82938-3.92726 2.6259300000000003l-1.6396400000000002 3.54778c-0.7106300000000001 1.5394-2.48631 2.27509-4.07941 1.68976l-3.6569700000000003-1.3425c-1.51255 0.39917-3.06448 0.7016800000000001-4.64505 0.9129l-2.87653 2.65278c-1.24763 1.14918-3.1683 1.14918-4.41593 0l-2.87653-2.65278c-1.58057-0.21301-3.1325000000000003-0.51552-4.64505-0.9129l-3.6569700000000003 1.3425c-1.59131 0.58533-3.36699-0.15036000000000002-4.07941-1.68976l-1.6396400000000002-3.54778c-1.3657700000000002-0.79655-2.67784-1.6700700000000002-3.92726-2.6259300000000003l-3.9075699999999998-0.15752c-1.69513-0.06802-3.05374-1.42663-3.12176-3.12176l-0.15752-3.9075699999999998c-0.9540700000000001-1.24942-1.82938-2.56149-2.6259300000000003-3.92726l-3.54778-1.6396400000000002c-1.5394-0.7106300000000001-2.27509-2.48631-1.68976-4.07941l1.3425-3.6569700000000003c-0.39917-1.51255-0.7016800000000001-3.06448-0.9129-4.64505l-2.65278-2.87653c-1.14918-1.24763-1.14918-3.1683 0-4.41593l2.65278-2.87653c0.21301-1.58057 0.51552-3.1325000000000003 0.9129-4.64505l-1.3425-3.6569700000000003c-0.58533-1.59131 0.15036000000000002-3.36699 1.68976-4.07941l3.54778-1.6396400000000002c0.79655-1.3657700000000002 1.6700700000000002-2.67784 2.6259300000000003-3.92726l0.15752-3.9075699999999998c0.06802-1.69513 1.42663-3.05374 3.12176-3.12176l3.9075699999999998-0.15752c1.24942-0.9540700000000001 2.56149-1.82938 3.92726-2.6259300000000003l1.6396400000000002-3.54778c0.7106300000000001-1.5394 2.48631-2.27509 4.07941-1.68976l3.6569700000000003 1.3425c1.51255-0.39917 3.06448-0.7016800000000001 4.64505-0.9129l2.8783200000000004-2.65278c1.24763-1.14918 3.1683-1.14918 4.41593 0l2.87653 2.65278c1.58057 0.21301 3.1325000000000003 0.51552 4.64505 0.9129l3.6569700000000003-1.3425c1.59131-0.58533 3.36699 0.15036000000000002 4.07941 1.68976l1.6396400000000002 3.54778c1.3657700000000002 0.79655 2.67784 1.6700700000000002 3.92726 2.6259300000000003l3.9075699999999998 0.15752c1.69513 0.06802 3.05374 1.42663 3.12176 3.12176l0.15752 3.9075699999999998c0.9540700000000001 1.24942 1.82938 2.56149 2.6259300000000003 3.92726l3.54778 1.6396400000000002c1.5394 0.7106300000000001 2.27509 2.48631 1.68976 4.07941l-1.3425 3.6569700000000003c0.39917 1.51255 0.7016800000000001 3.06448 0.9129 4.64505l2.65278 2.87653C98.73819 56.31877 98.73819 58.23944 97.58722 59.487069999999996zM57.28 85.92c15.81823 0 28.64-12.82177 28.64-28.64s-12.82177-28.64-28.64-28.64-28.64 12.82177-28.64 28.64S41.46177 85.92 57.28 85.92z"></path></g><g id="Black-S" transform="matrix(1,0,0,1,2870.4000244140625,597.7705078125)"><path d="M62.97024999999999 87.4965c-3.5734999999999997 0-7.17325-0.77875-10.535-2.3835-1.7429999999999999-0.833-2.4815-2.9225-1.6484999999999999-4.667249999999999s2.9225-2.48325 4.667249999999999-1.65025c6.672750000000001 3.18675 14.682500000000001 1.8165 19.92025-3.42125 5.236-5.23775 6.6115-13.24225 3.42125-19.92025-0.83475-1.74475-0.0945-3.83425 1.6484999999999999-4.667249999999999 1.7429999999999999-0.83475 3.8325-0.09625 4.667249999999999 1.6484999999999999 4.46775 9.350249999999999 2.5427500000000003 20.55725-4.788 27.887999999999998C75.62975 85.02025 69.342 87.4965 62.97024999999999 87.4965z"></path><path d="M44.0475 75.5545c-1.3054999999999999 0-2.5585-0.735-3.1605-1.9914999999999998-4.46775-9.350249999999999-2.5427500000000003-20.55725 4.788-27.887999999999998 7.32725-7.329 18.53075-9.255749999999999 27.887999999999998-4.788 1.7429999999999999 0.833 2.4815 2.9225 1.6484999999999999 4.667249999999999-0.833 1.74475-2.9242500000000002 2.4815-4.667249999999999 1.65025-6.678-3.1885000000000003-14.68425-1.8165-19.92025 3.42125s-6.6115 13.24225-3.42125 19.92025c0.83475 1.74475 0.0945 3.83425-1.6484999999999999 4.667249999999999C45.067750000000004 75.44425 44.55325 75.5545 44.0475 75.5545z"></path><path d="M107.45 65.688l-2.716 2.947c-0.23450000000000001 1.75175-0.5705 3.472-1.01325 5.14675l1.37375 3.7432499999999997c0.7122499999999999 1.94075-0.18375 4.101999999999999-2.05975 4.97l-3.633 1.68c-0.882 1.512-1.8515000000000001 2.968-2.91025 4.35225l-0.16275 4.00225c-0.084 2.065-1.7395 3.7205-3.8045 3.8045l-4.00225 0.16275c-1.38425 1.0587499999999999-2.84025 2.0265-4.35225 2.91025l-1.68 3.633c-0.868 1.8760000000000001-3.02925 2.7720000000000002-4.97 2.05975l-3.7432499999999997-1.37375c-1.6764999999999999 0.44275-3.395 0.777-5.14675 1.01325L65.68975 107.45c-1.519 1.4000000000000001-3.85875 1.4000000000000001-5.37775 0l-2.947-2.716c-1.75175-0.23450000000000001-3.472-0.5705-5.14675-1.01325L48.475 105.09450000000001c-1.94075 0.7122499999999999-4.101999999999999-0.18375-4.97-2.05975l-1.68-3.633c-1.512-0.882-2.968-1.8515000000000001-4.35225-2.91025l-4.00225-0.16275c-2.065-0.084-3.7205-1.7395-3.8045-3.8045l-0.16275-4.00225c-1.0587499999999999-1.38425-2.0265-2.84025-2.91025-4.35225l-3.633-1.68c-1.8760000000000001-0.868-2.7720000000000002-3.02925-2.05975-4.97l1.37375-3.7432499999999997c-0.44275-1.6764999999999999-0.777-3.395-1.01325-5.14675L18.55 65.688c-1.4000000000000001-1.519-1.4000000000000001-3.85875 0-5.37775l2.716-2.947c0.23450000000000001-1.75175 0.5705-3.472 1.01325-5.14675l-1.37375-3.7432499999999997c-0.7122499999999999-1.94075 0.18375-4.101999999999999 2.05975-4.97l3.6294999999999997-1.6764999999999999c0.882-1.512 1.8515000000000001-2.968 2.91025-4.35225l0.16275-4.00225c0.084-2.065 1.7395-3.7205 3.8045-3.8045l4.00225-0.16275c1.38425-1.0587499999999999 2.84025-2.0265 4.35225-2.91025l1.68-3.633c0.868-1.8760000000000001 3.02925-2.7720000000000002 4.97-2.05975l3.7432499999999997 1.37375c1.6764999999999999-0.44275 3.395-0.777 5.14675-1.01325l2.94875-2.7177499999999997c1.519-1.4000000000000001 3.85875-1.4000000000000001 5.37775 0l2.947 2.716c1.75175 0.23450000000000001 3.472 0.5705 5.14675 1.01325l3.7432499999999997-1.37375c1.94075-0.7122499999999999 4.101999999999999 0.18375 4.97 2.05975l1.6764999999999999 3.6294999999999997c1.512 0.882 2.968 1.8515000000000001 4.35225 2.91025l4.00225 0.16275c2.065 0.084 3.7205 1.7395 3.8045 3.8045l0.16275 4.00225c1.0587499999999999 1.38425 2.0265 2.84025 2.91025 4.35225l3.633 1.68c1.8760000000000001 0.868 2.7720000000000002 3.02925 2.05975 4.97l-1.37375 3.7432499999999997c0.44275 1.6764999999999999 0.777 3.395 1.01325 5.14675l2.716 2.947C108.85000000000001 61.82925 108.85000000000001 64.169 107.45 65.688zM63 91c15.464749999999999 0 28-12.535250000000001 28-28s-12.535250000000001-28-28-28-28 12.535250000000001-28 28S47.53525 91 63 91z"></path></g></g></svg>