<svg version="1.1" xmlns="http://www.w3.org/2000/svg" xmlns:xlink="http://www.w3.org/1999/xlink" width="3300" height="2200" viewBox="0 0 3300 2200">
    <g id="Notes">
        <rect height="2200" id="artboard" style="fill:white;opacity:1" width="3300" x="0" y="0"></rect>
        <line style="fill:none;stroke:black;opacity:1;stroke-width:0.5;" x1="263" x2="3036" y1="292" y2="292"></line>
        <text style="stroke:none;fill:black;font-family:sans-serif;font-size:13;font-weight:bold;" transform="matrix(1 0 0 1 263 322)">Weight/Scale Variations</text>
        <text style="stroke:none;fill:black;font-family:sans-serif;font-size:13;text-anchor:middle;" transform="matrix(1 0 0 1 559.711 322)">Ultralight</text>
        <text style="stroke:none;fill:black;font-family:sans-serif;font-size:13;text-anchor:middle;" transform="matrix(1 0 0 1 856.422 322)">Thin</text>
        <text style="stroke:none;fill:black;font-family:sans-serif;font-size:13;text-anchor:middle;" transform="matrix(1 0 0 1 1153.13 322)">Light</text>
        <text style="stroke:none;fill:black;font-family:sans-serif;font-size:13;text-anchor:middle;" transform="matrix(1 0 0 1 1449.84 322)">Regular</text>
        <text style="stroke:none;fill:black;font-family:sans-serif;font-size:13;text-anchor:middle;" transform="matrix(1 0 0 1 1746.56 322)">Medium</text>
        <text style="stroke:none;fill:black;font-family:sans-serif;font-size:13;text-anchor:middle;" transform="matrix(1 0 0 1 2043.27 322)">Semibold</text>
        <text style="stroke:none;fill:black;font-family:sans-serif;font-size:13;text-anchor:middle;" transform="matrix(1 0 0 1 2339.98 322)">Bold</text>
        <text style="stroke:none;fill:black;font-family:sans-serif;font-size:13;text-anchor:middle;" transform="matrix(1 0 0 1 2636.69 322)">Heavy</text>
        <text style="stroke:none;fill:black;font-family:sans-serif;font-size:13;text-anchor:middle;" transform="matrix(1 0 0 1 2933.4 322)">Black</text>
        <line style="fill:none;stroke:black;opacity:1;stroke-width:0.5;" x1="263" x2="3036" y1="1903" y2="1903"></line>
        <g transform="matrix(1 0 0 1 263 1933)">
            <path d="M9.24805 0.830078Q10.8691 0.830078 12.2949 0.214844Q13.7207-0.400391 14.8096-1.49414Q15.8984-2.58789 16.5186-4.01367Q17.1387-5.43945 17.1387-7.05078Q17.1387-8.66211 16.5186-10.0879Q15.8984-11.5137 14.8047-12.6074Q13.7109-13.7012 12.2852-14.3164Q10.8594-14.9316 9.23828-14.9316Q7.62695-14.9316 6.20117-14.3164Q4.77539-13.7012 3.69141-12.6074Q2.60742-11.5137 1.9873-10.0879Q1.36719-8.66211 1.36719-7.05078Q1.36719-5.43945 1.9873-4.01367Q2.60742-2.58789 3.69629-1.49414Q4.78516-0.400391 6.21094 0.214844Q7.63672 0.830078 9.24805 0.830078ZM9.24805-0.654297Q7.91992-0.654297 6.7627-1.14746Q5.60547-1.64062 4.73145-2.51953Q3.85742-3.39844 3.36426-4.56055Q2.87109-5.72266 2.87109-7.05078Q2.87109-8.37891 3.35938-9.54102Q3.84766-10.7031 4.72168-11.582Q5.5957-12.4609 6.75293-12.9541Q7.91016-13.4473 9.23828-13.4473Q10.5762-13.4473 11.7334-12.9541Q12.8906-12.4609 13.7695-11.582Q14.6484-10.7031 15.1465-9.54102Q15.6445-8.37891 15.6445-7.05078Q15.6445-5.72266 15.1514-4.56055Q14.6582-3.39844 13.7842-2.51953Q12.9102-1.64062 11.748-1.14746Q10.5859-0.654297 9.24805-0.654297ZM5.83984-7.04102Q5.83984-6.71875 6.04492-6.51855Q6.25-6.31836 6.5918-6.31836L8.50586-6.31836L8.50586-4.39453Q8.50586-4.0625 8.70605-3.85742Q8.90625-3.65234 9.22852-3.65234Q9.56055-3.65234 9.76562-3.85742Q9.9707-4.0625 9.9707-4.39453L9.9707-6.31836L11.8945-6.31836Q12.2266-6.31836 12.4316-6.51855Q12.6367-6.71875 12.6367-7.04102Q12.6367-7.37305 12.4316-7.57812Q12.2266-7.7832 11.8945-7.7832L9.9707-7.7832L9.9707-9.69727Q9.9707-10.0391 9.76562-10.2441Q9.56055-10.4492 9.22852-10.4492Q8.90625-10.4492 8.70605-10.2441Q8.50586-10.0391 8.50586-9.69727L8.50586-7.7832L6.5918-7.7832Q6.25-7.7832 6.04492-7.57812Q5.83984-7.37305 5.83984-7.04102Z"></path>
        </g>
        <g transform="matrix(1 0 0 1 281.867 1933)">
            <path d="M11.709 2.91016Q13.75 2.91016 15.5518 2.12891Q17.3535 1.34766 18.7305-0.0292969Q20.1074-1.40625 20.8887-3.20801Q21.6699-5.00977 21.6699-7.05078Q21.6699-9.0918 20.8887-10.8936Q20.1074-12.6953 18.7305-14.0723Q17.3535-15.4492 15.5469-16.2305Q13.7402-17.0117 11.6992-17.0117Q9.6582-17.0117 7.85645-16.2305Q6.05469-15.4492 4.68262-14.0723Q3.31055-12.6953 2.5293-10.8936Q1.74805-9.0918 1.74805-7.05078Q1.74805-5.00977 2.5293-3.20801Q3.31055-1.40625 4.6875-0.0292969Q6.06445 1.34766 7.86621 2.12891Q9.66797 2.91016 11.709 2.91016ZM11.709 1.25Q9.98047 1.25 8.47656 0.605469Q6.97266-0.0390625 5.83496-1.17676Q4.69727-2.31445 4.05762-3.81836Q3.41797-5.32227 3.41797-7.05078Q3.41797-8.7793 4.05762-10.2832Q4.69727-11.7871 5.83008-12.9297Q6.96289-14.0723 8.4668-14.7119Q9.9707-15.3516 11.6992-15.3516Q13.4277-15.3516 14.9316-14.7119Q16.4355-14.0723 17.5781-12.9297Q18.7207-11.7871 19.3652-10.2832Q20.0098-8.7793 20.0098-7.05078Q20.0098-5.32227 19.3701-3.81836Q18.7305-2.31445 17.5928-1.17676Q16.4551-0.0390625 14.9463 0.605469Q13.4375 1.25 11.709 1.25ZM7.39258-7.04102Q7.39258-6.68945 7.62695-6.46484Q7.86133-6.24023 8.23242-6.24023L10.8789-6.24023L10.8789-3.57422Q10.8789-3.21289 11.1035-2.9834Q11.3281-2.75391 11.6797-2.75391Q12.0508-2.75391 12.2852-2.9834Q12.5195-3.21289 12.5195-3.57422L12.5195-6.24023L15.1758-6.24023Q15.5371-6.24023 15.7715-6.46484Q16.0059-6.68945 16.0059-7.04102Q16.0059-7.41211 15.7715-7.6416Q15.5371-7.87109 15.1758-7.87109L12.5195-7.87109L12.5195-10.5176Q12.5195-10.8984 12.2852-11.1279Q12.0508-11.3574 11.6797-11.3574Q11.3281-11.3574 11.1035-11.1279Q10.8789-10.8984 10.8789-10.5176L10.8789-7.87109L8.23242-7.87109Q7.85156-7.87109 7.62207-7.6416Q7.39258-7.41211 7.39258-7.04102Z"></path>
        </g>
        <g transform="matrix(1 0 0 1 305.646 1933)">
            <path d="M14.9707 5.66406Q17.0605 5.66406 18.96 5.01465Q20.8594 4.36523 22.4512 3.19336Q24.043 2.02148 25.2197 0.429688Q26.3965-1.16211 27.0459-3.06641Q27.6953-4.9707 27.6953-7.05078Q27.6953-9.14062 27.0459-11.04Q26.3965-12.9395 25.2197-14.5312Q24.043-16.123 22.4512-17.2998Q20.8594-18.4766 18.9551-19.126Q17.0508-19.7754 14.9609-19.7754Q12.8711-19.7754 10.9717-19.126Q9.07227-18.4766 7.48535-17.2998Q5.89844-16.123 4.72168-14.5312Q3.54492-12.9395 2.90039-11.04Q2.25586-9.14062 2.25586-7.05078Q2.25586-4.9707 2.90527-3.06641Q3.55469-1.16211 4.72656 0.429688Q5.89844 2.02148 7.49023 3.19336Q9.08203 4.36523 10.9814 5.01465Q12.8809 5.66406 14.9707 5.66406ZM14.9707 3.84766Q13.1641 3.84766 11.5283 3.2959Q9.89258 2.74414 8.53516 1.74805Q7.17773 0.751953 6.17676-0.610352Q5.17578-1.97266 4.62891-3.6084Q4.08203-5.24414 4.08203-7.05078Q4.08203-8.86719 4.62891-10.5029Q5.17578-12.1387 6.17188-13.501Q7.16797-14.8633 8.52539-15.8594Q9.88281-16.8555 11.5186-17.4023Q13.1543-17.9492 14.9609-17.9492Q16.7773-17.9492 18.4131-17.4023Q20.0488-16.8555 21.4111-15.8594Q22.7734-14.8633 23.7695-13.501Q24.7656-12.1387 25.3174-10.5029Q25.8691-8.86719 25.8691-7.05078Q25.8789-5.24414 25.332-3.6084Q24.7852-1.97266 23.7842-0.610352Q22.7832 0.751953 21.4209 1.74805Q20.0586 2.74414 18.4229 3.2959Q16.7871 3.84766 14.9707 3.84766ZM9.45312-7.04102Q9.45312-6.66016 9.71191-6.41113Q9.9707-6.16211 10.3711-6.16211L14.0625-6.16211L14.0625-2.46094Q14.0625-2.06055 14.3115-1.80664Q14.5605-1.55273 14.9414-1.55273Q15.3516-1.55273 15.6055-1.80664Q15.8594-2.06055 15.8594-2.46094L15.8594-6.16211L19.5605-6.16211Q19.9609-6.16211 20.2148-6.41113Q20.4688-6.66016 20.4688-7.04102Q20.4688-7.45117 20.2148-7.70508Q19.9609-7.95898 19.5605-7.95898L15.8594-7.95898L15.8594-11.6504Q15.8594-12.0605 15.6055-12.3145Q15.3516-12.5684 14.9414-12.5684Q14.5605-12.5684 14.3115-12.3096Q14.0625-12.0508 14.0625-11.6504L14.0625-7.95898L10.3711-7.95898Q9.96094-7.95898 9.70703-7.70508Q9.45312-7.45117 9.45312-7.04102Z"></path>
        </g>
        <text style="stroke:none;fill:black;font-family:sans-serif;font-size:13;font-weight:bold;" transform="matrix(1 0 0 1 263 1953)">Design Variations</text>
        <text style="stroke:none;fill:black;font-family:sans-serif;font-size:13;" transform="matrix(1 0 0 1 263 1971)">Symbols are supported in up to nine weights and three scales.</text>
        <text style="stroke:none;fill:black;font-family:sans-serif;font-size:13;" transform="matrix(1 0 0 1 263 1989)">For optimal layout with text and other symbols, vertically align</text>
        <text style="stroke:none;fill:black;font-family:sans-serif;font-size:13;" transform="matrix(1 0 0 1 263 2007)">symbols with the adjacent text.</text>
        <line style="fill:none;stroke:#00AEEF;stroke-width:0.5;opacity:1.0;" x1="776" x2="776" y1="1919" y2="1933"></line>
        <g transform="matrix(1 0 0 1 776 1933)">
            <path d="M3.31055 0.15625Q3.70117 0.15625 3.91602-0.00976562Q4.13086-0.175781 4.26758-0.585938L5.52734-4.0332L11.2891-4.0332L12.5488-0.585938Q12.6855-0.175781 12.9004-0.00976562Q13.1152 0.15625 13.4961 0.15625Q13.8867 0.15625 14.1162-0.0585938Q14.3457-0.273438 14.3457-0.644531Q14.3457-0.869141 14.2383-1.17188L9.6582-13.3691Q9.48242-13.8184 9.17969-14.043Q8.87695-14.2676 8.4082-14.2676Q7.5-14.2676 7.17773-13.3789L2.59766-1.16211Q2.49023-0.859375 2.49023-0.634766Q2.49023-0.263672 2.70996-0.0537109Q2.92969 0.15625 3.31055 0.15625ZM6.00586-5.51758L8.37891-12.0898L8.42773-12.0898L10.8008-5.51758Z"></path>
        </g>
        <line style="fill:none;stroke:#00AEEF;stroke-width:0.5;opacity:1.0;" x1="793.197" x2="793.197" y1="1919" y2="1933"></line>
        <text style="stroke:none;fill:black;font-family:sans-serif;font-size:13;font-weight:bold;" transform="matrix(1 0 0 1 776 1953)">Margins</text>
        <text style="stroke:none;fill:black;font-family:sans-serif;font-size:13;" transform="matrix(1 0 0 1 776 1971)">Leading and trailing margins on the left and right side of each symbol</text>
        <text style="stroke:none;fill:black;font-family:sans-serif;font-size:13;" transform="matrix(1 0 0 1 776 1989)">can be adjusted by modifying the x-location of the margin guidelines.</text>
        <text style="stroke:none;fill:black;font-family:sans-serif;font-size:13;" transform="matrix(1 0 0 1 776 2007)">Modifications are automatically applied proportionally to all</text>
        <text style="stroke:none;fill:black;font-family:sans-serif;font-size:13;" transform="matrix(1 0 0 1 776 2025)">scales and weights.</text>
        <g transform="matrix(1 0 0 1 1289 1933)">
            <path d="M2.8418 1.86523L4.54102 3.57422Q5.18555 4.22852 5.90332 4.17969Q6.62109 4.13086 7.31445 3.35938L18.0078-8.42773L17.041-9.4043L6.42578 2.27539Q6.16211 2.57812 5.89355 2.61719Q5.625 2.65625 5.27344 2.30469L4.10156 1.14258Q3.75 0.791016 3.79395 0.522461Q3.83789 0.253906 4.14062-0.0195312L15.6152-10.8203L14.6387-11.7871L3.04688-0.898438Q2.30469-0.214844 2.25098 0.498047Q2.19727 1.21094 2.8418 1.86523ZM9.25781-16.3281Q8.94531-16.0254 8.90625-15.6348Q8.86719-15.2441 9.04297-14.9512Q9.21875-14.6777 9.55566-14.541Q9.89258-14.4043 10.3809-14.5215Q11.4746-14.7754 12.5977-14.7314Q13.7207-14.6875 14.7949-13.9844L14.209-12.5293Q13.9551-11.9043 14.0674-11.4404Q14.1797-10.9766 14.5801-10.5664L16.875-8.25195Q17.2363-7.88086 17.5781-7.82227Q17.9199-7.76367 18.3398-7.8418L19.4043-8.03711L20.0684-7.36328L20.0293-6.80664Q20-6.43555 20.1221-6.12305Q20.2441-5.81055 20.6055-5.44922L21.3672-4.70703Q21.7285-4.3457 22.1533-4.33105Q22.5781-4.31641 22.9297-4.66797L25.8398-7.58789Q26.1914-7.93945 26.1816-8.35449Q26.1719-8.76953 25.8105-9.13086L25.0391-9.89258Q24.6875-10.2539 24.3799-10.3857Q24.0723-10.5176 23.7109-10.4883L23.1348-10.4395L22.4902-11.0742L22.7344-12.1973Q22.832-12.6172 22.6953-12.9834Q22.5586-13.3496 22.1191-13.7891L19.9219-15.9766Q18.6719-17.2168 17.2607-17.8369Q15.8496-18.457 14.4189-18.4814Q12.9883-18.5059 11.665-17.959Q10.3418-17.4121 9.25781-16.3281ZM10.752-15.957Q11.6602-16.6211 12.7002-16.9043Q13.7402-17.1875 14.8047-17.085Q15.8691-16.9824 16.8701-16.5137Q17.8711-16.0449 18.7012-15.2051L21.1328-12.793Q21.3086-12.6172 21.3525-12.4512Q21.3965-12.2852 21.3379-12.0312L21.0156-10.5469L22.5195-9.0625L23.5059-9.12109Q23.6914-9.13086 23.7891-9.09668Q23.8867-9.0625 24.0332-8.91602L24.6094-8.33984L22.168-5.89844L21.5918-6.47461Q21.4453-6.62109 21.4062-6.71875Q21.3672-6.81641 21.377-7.01172L21.4453-7.98828L19.9512-9.47266L18.4277-9.21875Q18.1836-9.16992 18.042-9.2041Q17.9004-9.23828 17.7148-9.41406L15.7129-11.416Q15.5176-11.5918 15.4932-11.7529Q15.4688-11.9141 15.5859-12.1875L16.4648-14.2773Q15.293-15.3711 13.8281-15.791Q12.3633-16.2109 10.8398-15.7617Q10.7227-15.7324 10.6885-15.8057Q10.6543-15.8789 10.752-15.957Z"></path>
        </g>
        <text style="stroke:none;fill:black;font-family:sans-serif;font-size:13;font-weight:bold;" transform="matrix(1 0 0 1 1289 1953)">Exporting</text>
        <text style="stroke:none;fill:black;font-family:sans-serif;font-size:13;" transform="matrix(1 0 0 1 1289 1971)">Symbols should be outlined when exporting to ensure the</text>
        <text style="stroke:none;fill:black;font-family:sans-serif;font-size:13;" transform="matrix(1 0 0 1 1289 1989)">design is preserved when submitting to Xcode.</text>
        <text id="template-version" style="stroke:none;fill:black;font-family:sans-serif;font-size:13;text-anchor:end;" transform="matrix(1 0 0 1 3036 1933)">Template v.3.0</text>
        <text style="stroke:none;fill:black;font-family:sans-serif;font-size:13;text-anchor:end;" transform="matrix(1 0 0 1 3036 1951)">Requires Xcode 13 or greater</text>
        <text id="descriptive-name" style="stroke:none;fill:black;font-family:sans-serif;font-size:13;text-anchor:end;" transform="matrix(1 0 0 1 3036 1969)">Generated from custom.pencil.circle</text>
        <text style="stroke:none;fill:black;font-family:sans-serif;font-size:13;text-anchor:end;" transform="matrix(1 0 0 1 3036 1987)">Typeset at 100 points</text>
        <text style="stroke:none;fill:black;font-family:sans-serif;font-size:13;" transform="matrix(1 0 0 1 263 726)">Small</text>
        <text style="stroke:none;fill:black;font-family:sans-serif;font-size:13;" transform="matrix(1 0 0 1 263 1156)">Medium</text>
        <text style="stroke:none;fill:black;font-family:sans-serif;font-size:13;" transform="matrix(1 0 0 1 263 1586)">Large</text>
    </g>
    <g id="Guides">
        <g id="H-reference" style="fill:#27AAE1;stroke:none;" transform="matrix(1 0 0 1 339 696)">
            <path d="M0.976562 0L3.66211 0L29.3457-67.1387L30.0293-67.1387L30.0293-70.459L28.125-70.459ZM11.6699-24.4629L46.9727-24.4629L46.2402-26.709L12.4512-26.709ZM55.127 0L57.7637 0L30.6152-70.459L29.4434-70.459L29.4434-67.1387Z"></path>
        </g>
        <line id="Baseline-S" style="fill:none;stroke:#27AAE1;opacity:1;stroke-width:0.5;" x1="263" x2="3036" y1="696" y2="696"></line>
        <line id="Capline-S" style="fill:none;stroke:#27AAE1;opacity:1;stroke-width:0.5;" x1="263" x2="3036" y1="625.541" y2="625.541"></line>
        <g id="H-reference" style="fill:#27AAE1;stroke:none;" transform="matrix(1 0 0 1 339 1126)">
            <path d="M0.976562 0L3.66211 0L29.3457-67.1387L30.0293-67.1387L30.0293-70.459L28.125-70.459ZM11.6699-24.4629L46.9727-24.4629L46.2402-26.709L12.4512-26.709ZM55.127 0L57.7637 0L30.6152-70.459L29.4434-70.459L29.4434-67.1387Z"></path>
        </g>
        <line id="Baseline-M" style="fill:none;stroke:#27AAE1;opacity:1;stroke-width:0.5;" x1="263" x2="3036" y1="1126" y2="1126"></line>
        <line id="Capline-M" style="fill:none;stroke:#27AAE1;opacity:1;stroke-width:0.5;" x1="263" x2="3036" y1="1055.54" y2="1055.54"></line>
        <g id="H-reference" style="fill:#27AAE1;stroke:none;" transform="matrix(1 0 0 1 339 1556)">
            <path d="M0.976562 0L3.66211 0L29.3457-67.1387L30.0293-67.1387L30.0293-70.459L28.125-70.459ZM11.6699-24.4629L46.9727-24.4629L46.2402-26.709L12.4512-26.709ZM55.127 0L57.7637 0L30.6152-70.459L29.4434-70.459L29.4434-67.1387Z"></path>
        </g>
        <line id="Baseline-L" style="fill:none;stroke:#27AAE1;opacity:1;stroke-width:0.5;" x1="263" x2="3036" y1="1556" y2="1556"></line>
        <line id="Capline-L" style="fill:none;stroke:#27AAE1;opacity:1;stroke-width:0.5;" x1="263" x2="3036" y1="1485.54" y2="1485.54"></line>
        <line id="left-margin-Ultralight-S" style="fill:none;stroke:#00AEEF;stroke-width:0.5;opacity:1.0;" x1="509.78552654266355" x2="509.78552654266355" y1="600.784" y2="720.121"></line>
        <line id="right-margin-Ultralight-S" style="fill:none;stroke:#00AEEF;stroke-width:0.5;opacity:1.0;" x1="609.636470527649" x2="609.636470527649" y1="600.784" y2="720.121"></line>
        <line id="left-margin-Regular-S" style="fill:none;stroke:#00AEEF;stroke-width:0.5;opacity:1.0;" x1="1398.174970703125" x2="1398.174970703125" y1="600.784" y2="720.121"></line>
        <line id="right-margin-Regular-S" style="fill:none;stroke:#00AEEF;stroke-width:0.5;opacity:1.0;" x1="1501.514970703125" x2="1501.514970703125" y1="600.784" y2="720.121"></line>
        <line id="left-margin-Black-S" style="fill:none;stroke:#00AEEF;stroke-width:0.5;opacity:1.0;" x1="2877.4000244140625" x2="2877.4000244140625" y1="600.784" y2="720.121"></line>
        <line id="right-margin-Black-S" style="fill:none;stroke:#00AEEF;stroke-width:0.5;opacity:1.0;" x1="2989.4000244140625" x2="2989.4000244140625" y1="600.784" y2="720.121"></line>
    </g>
<g id="Symbols"><g id="Ultralight-S" transform="matrix(1,0,0,1,504.96099853515625,606.0205078125)"><path d="M93.73199999999999 55.888799999999996l-3.3726 3.6572999999999998c-0.219 1.5110999999999999-0.5037 2.9784-0.876 4.4018999999999995l1.7082 4.6647c0.30660000000000004 0.8103-0.0657 1.752-0.876 2.1024l-4.5114 2.1024c-0.7446 1.2920999999999998-1.5768 2.5185-2.4747 3.7011l-0.219 4.9713c-0.0219 0.876-0.7227 1.5987-1.6206 1.6206l-4.9713 0.219c-1.1826 0.8978999999999999-2.4090000000000003 1.7082-3.7011 2.4747l-2.1024 4.5114c-0.3504 0.8103-1.2920999999999998 1.1826-2.1024 0.876l-4.6647-1.7082c-1.4235 0.3723-2.8908 0.6569999999999999-4.38 0.8541l-3.6792 3.3945c-0.6350999999999999 0.5913-1.6425 0.5913-2.2776 0l-3.6572999999999998-3.3945c-1.5110999999999999-0.1971-2.9784-0.4818-4.4018999999999995-0.8541l-4.6647 1.7082c-0.8103 0.30660000000000004-1.752-0.0657-2.1024-0.876l-2.1024-4.5114c-1.2920999999999998-0.7665-2.5185-1.5768-3.7011-2.4747l-4.9713-0.219c-0.876-0.0219-1.5987-0.7446-1.6206-1.6206l-0.219-4.9713c-0.8978999999999999-1.1826-1.7082-2.4090000000000003-2.4747-3.7011l-4.5114-2.1024c-0.8103-0.3504-1.1826-1.2920999999999998-0.876-2.1024l1.7082-4.6647c-0.3723-1.4235-0.6569999999999999-2.8908-0.8541-4.4018999999999995L15.768 55.888799999999996c-0.5913-0.6350999999999999-0.5913-1.6425 0-2.2776l3.3945-3.6792c0.1971-1.4892 0.4818-2.9565 0.8541-4.38l-1.7082-4.6647c-0.30660000000000004-0.8103 0.0657-1.752 0.876-2.1024l4.5114-2.1024c0.7446-1.2920999999999998 1.5768-2.5185 2.4747-3.7011l0.219-4.9713c0.0219-0.876 0.7227-1.5987 1.6206-1.6206l4.9713-0.219c1.1826-0.8978999999999999 2.4090000000000003-1.7082 3.7011-2.4747l2.1024-4.5114c0.3504-0.8103 1.2920999999999998-1.1826 2.1024-0.876l4.6647 1.7082c1.4235-0.3723 2.8908-0.6569999999999999 4.38-0.8541l3.6792-3.3945c0.6350999999999999-0.5913 1.6425-0.5913 2.2776 0l3.6792 3.3945c1.4892 0.1971 2.9565 0.4818 4.38 0.8541l4.6647-1.7082c0.8103-0.30660000000000004 1.752 0.0657 2.1024 0.876l2.1024 4.5114c1.2920999999999998 0.7446 2.5185 1.5768 3.7011 2.4747l4.9713 0.219c0.876 0.0219 1.5987 0.7227 1.6206 1.6206l0.219 4.9713c0.8978999999999999 1.1826 1.7082 2.4090000000000003 2.4747 3.7011l4.5114 2.1024c0.8103 0.3504 1.1826 1.2920999999999998 0.876 2.1024l-1.7082 4.6647c0.3723 1.4235 0.6569999999999999 2.8908 0.8541 4.38l3.3945 3.6792C94.3233 54.2463 94.3233 55.2537 93.73199999999999 55.888799999999996zM37.71618 37.71618c8.05701-8.05701 20.79843-9.353489999999999 30.28989-3.0879 0.50151 0.32849999999999996 1.1826 0.19271999999999997 1.5176699999999999-0.31098 0.33288-0.5037 0.19271999999999997-1.18479-0.31098-1.5176699999999999-10.35651-6.837179999999999-24.25206-5.42244-33.042719999999996 3.36822-8.891399999999999 8.891399999999999-10.238249999999999 22.892069999999997-3.20178 33.29019 0.21243 0.31316999999999995 0.55626 0.4818 0.9088499999999999 0.4818 0.21024 0 0.42486-0.06132 0.6132000000000001-0.18833999999999998 0.50151-0.33945 0.63291-1.01835 0.29346-1.5198599999999998C28.32984 58.698570000000004 29.564999999999998 45.86517 37.71618 37.71618zM73.33215 73.33215c8.891399999999999-8.891399999999999 10.238249999999999-22.892069999999997 3.20178-33.29019-0.33945-0.50151-1.01616-0.63291-1.5198599999999998-0.29346-0.50151 0.33945-0.63291 1.01835-0.29346 1.5198599999999998 6.4495499999999995 9.53088 5.214389999999999 22.36209-2.93679 30.51327-8.0592 8.05701-20.79624 9.353489999999999-30.28989 3.0879-0.5058900000000001-0.33288-1.18479-0.19490999999999997-1.5176699999999999 0.31098-0.33288 0.5037-0.19271999999999997 1.18479 0.31098 1.5176699999999999 4.3887599999999996 2.89737 9.414810000000001 4.3143 14.41677 4.3143C61.50834 81.01467000000001 68.26886999999999 78.39762 73.33215 73.33215z"></path></g><g id="Regular-S" transform="matrix(1,0,0,1,1392.564970703125,603.4905078125)"><path d="M97.5908 59.4817l-2.6492 2.8819000000000004c-0.2148 1.5752-0.5191 3.1325000000000003-0.9129 4.654l1.3425 3.6516c0.5728 1.5931-0.1611 3.3651999999999997-1.7005 4.0812l-3.5442 1.6289c-0.7876 1.3783-1.6647 2.685-2.6313 3.9380000000000006l-0.1432 3.9022000000000006c-0.0716 1.7005-1.4320000000000002 3.0609-3.1325000000000003 3.1146000000000003l-3.9022000000000006 0.1611c-1.253 0.9666000000000001-2.5597 1.8258-3.9380000000000006 2.6313l-1.6289 3.5442c-0.7160000000000001 1.5394-2.4880999999999998 2.2733-4.0812 1.7005l-3.6516-1.3425c-1.5215 0.3938-3.0788 0.6981-4.654 0.9129l-2.8819000000000004 2.6492c-1.2350999999999999 1.1456-3.1683 1.1456-4.4034 0l-2.8819000000000004-2.6492c-1.5752-0.2148-3.1325000000000003-0.5191-4.654-0.9129l-3.6516 1.3425c-1.5931 0.5728-3.3651999999999997-0.1611-4.0812-1.7005l-1.6289-3.5442c-1.3783-0.8055-2.685-1.6647-3.9380000000000006-2.6313l-3.9022000000000006-0.1611C28.64 87.2804 27.279600000000002 85.92 27.225900000000003 84.2195l-0.1611-3.9022000000000006c-0.9666000000000001-1.253-1.8258-2.5597-2.6313-3.9380000000000006l-3.5442-1.6289c-1.5394-0.7160000000000001-2.2733-2.4880999999999998-1.7005-4.0812l1.3425-3.6516c-0.3938-1.5215-0.6981-3.0788-0.9129-4.654l-2.6492-2.8819000000000004c-1.1456-1.2350999999999999-1.1456-3.1683 0-4.4034l2.6492-2.8819000000000004c0.2148-1.5752 0.5191-3.1325000000000003 0.9129-4.654l-1.3425-3.6516c-0.5728-1.5931 0.1611-3.3651999999999997 1.7005-4.0812l3.5442-1.6289c0.7876-1.3783 1.6647-2.685 2.6313-3.9380000000000006l0.1432-3.9022000000000006c0.0716-1.7005 1.4320000000000002-3.0609 3.1325000000000003-3.1146000000000003l3.9022000000000006-0.1611c1.253-0.9666000000000001 2.5597-1.8258 3.9380000000000006-2.6313l1.6289-3.5442c0.7160000000000001-1.5394 2.4880999999999998-2.2733 4.0812-1.7005l3.6516 1.3425c1.5215-0.3938 3.0788-0.6981 4.654-0.9129l2.8819000000000004-2.6492c1.2350999999999999-1.1456 3.1683-1.1456 4.4034 0l2.8819000000000004 2.6492c1.5752 0.2148 3.1325000000000003 0.5191 4.654 0.9129l3.6516-1.3425c1.5931-0.5728 3.3651999999999997 0.1611 4.0812 1.7005l1.6289 3.5442c1.3783 0.7876 2.685 1.6647 3.9380000000000006 2.6313l3.9022000000000006 0.1432c1.7005 0.0716 3.0609 1.4320000000000002 3.1146000000000003 3.1325000000000003l0.1611 3.9022000000000006c0.9666000000000001 1.253 1.8258 2.5597 2.6313 3.9380000000000006l3.5442 1.6289c1.5394 0.7160000000000001 2.2733 2.4880999999999998 1.7005 4.0812l-1.3425 3.6516c0.3938 1.5215 0.6981 3.0788 0.9129 4.654l2.6492 2.8819000000000004C98.73639999999999 56.3134 98.73639999999999 58.2466 97.5908 59.4817zM43.357380000000006 43.357380000000006c5.77991-5.77812 14.3558-7.39449 21.832629999999998-4.1134200000000005 1.36219 0.5978600000000001 2.94276-0.02327 3.5388300000000004-1.38188 0.59428-1.35861-0.02327-2.94276-1.38009-3.53704-9.52638-4.1742799999999995-20.43106-2.11936-27.78617 5.2357499999999995-7.35511 7.35511-9.410029999999999 18.26337-5.2357499999999995 27.78617 0.44213 1.0077699999999998 1.42663 1.60742 2.46125 1.60742 0.35979000000000005 0 0.7249500000000001-0.07339000000000001 1.07758-0.22554000000000002 1.35861-0.5960700000000001 1.9761600000000001-2.17843 1.38009-3.53704C35.96289 57.707809999999995 37.57747 49.13729 43.357380000000006 43.357380000000006zM74.99921 74.99921c7.35511-7.35511 9.410029999999999-18.26337 5.2357499999999995-27.78617-0.59428-1.35861-2.17485-1.9725800000000002-3.5388300000000004-1.38188-1.35861 0.5960700000000001-1.9761600000000001 2.17843-1.38009 3.53704 3.28107 7.48399 1.66649 16.05451-4.1134200000000005 21.83442-5.7817 5.77812-14.3558 7.39449-21.832629999999998 4.1134200000000005-1.35861-0.5960700000000001-2.94097 0.025060000000000002-3.5388300000000004 1.38188-0.59428 1.35861 0.02327 2.94276 1.38009 3.53704 3.2757 1.43558 6.71429 2.13368 10.11529 2.13368C63.81887 82.37043000000001 70.17337 79.82505 74.99921 74.99921z"></path></g><g id="Black-S" transform="matrix(1,0,0,1,2870.4000244140625,597.7705078125)"><path d="M107.45 65.695l-2.7125 2.94c-0.24500000000000002 1.75-0.5775 3.465-1.015 5.145l1.3825 3.745c0.7000000000000001 1.9425000000000001-0.1925 4.095-2.065 4.97L99.39999999999999 84.175c-0.875 1.505-1.855 2.975-2.905 4.3575l-0.1575 3.9899999999999998c-0.08750000000000001 2.065-1.75 3.7275-3.8150000000000004 3.8150000000000004l-3.9899999999999998 0.1575c-1.3825 1.05-2.8525 2.03-4.3575 2.905l-1.68 3.64c-0.8574999999999999 1.8725-3.0275 2.765-4.97 2.0475l-3.745-1.365c-1.68 0.4375-3.395 0.77-5.145 1.015l-2.94 2.7125c-1.5225 1.4000000000000001-3.8674999999999997 1.4000000000000001-5.390000000000001 0l-2.94-2.7125c-1.75-0.24500000000000002-3.465-0.5775-5.145-1.015l-3.745 1.365c-1.9425000000000001 0.7174999999999999-4.095-0.17500000000000002-4.97-2.0475L41.824999999999996 99.39999999999999c-1.505-0.875-2.975-1.855-4.3575-2.905l-3.9899999999999998-0.1575c-2.065-0.08750000000000001-3.7275-1.75-3.8150000000000004-3.8150000000000004l-0.1575-3.9899999999999998c-1.05-1.3825-2.03-2.8525-2.905-4.3575l-3.64-1.68c-1.8725-0.875-2.765-3.0275-2.0475-4.97l1.365-3.745c-0.4375-1.68-0.77-3.395-1.015-5.145l-2.7125-2.94c-1.4000000000000001-1.5225-1.4000000000000001-3.8674999999999997 0-5.390000000000001l2.7125-2.94c0.24500000000000002-1.75 0.5775-3.465 1.015-5.145l-1.365-3.745c-0.7174999999999999-1.9425000000000001 0.17500000000000002-4.1125 2.0475-4.97l3.64-1.68c0.875-1.505 1.855-2.975 2.905-4.3575l0.1575-3.9899999999999998c0.08750000000000001-2.065 1.75-3.7275 3.8150000000000004-3.8150000000000004l3.9899999999999998-0.1575c1.3825-1.05 2.8525-2.03 4.3575-2.905l1.68-3.64c0.8574999999999999-1.8725 3.0275-2.765 4.97-2.0475l3.745 1.365c1.68-0.4375 3.395-0.77 5.145-1.015l2.94-2.7125c1.5225-1.4000000000000001 3.8674999999999997-1.4000000000000001 5.390000000000001 0l2.94 2.7125c1.75 0.24500000000000002 3.465 0.5775 5.145 1.015l3.745-1.365c1.9425000000000001-0.7174999999999999 4.1125 0.17500000000000002 4.97 2.0475l1.68 3.64c1.505 0.875 2.975 1.855 4.3575 2.905l3.9899999999999998 0.1575c2.065 0.08750000000000001 3.7275 1.75 3.8150000000000004 3.8150000000000004l0.1575 3.9899999999999998c1.05 1.3825 2.03 2.8525 2.905 4.3575l3.64 1.68c1.8725 0.8574999999999999 2.765 3.0275 2.0475 4.97l-1.365 3.745c0.4375 1.68 0.77 3.395 1.015 5.145l2.7125 2.94C108.85000000000001 61.8275 108.85000000000001 64.1725 107.45 65.695zM48.151250000000005 48.151250000000005c6.28425-6.2825 15.89-7.9345 23.90325-4.1055 1.74475 0.83475 3.83425 0.0945 4.667249999999999-1.65025 0.83475-1.74475 0.0945-3.8325-1.6484999999999999-4.667249999999999-10.68375-5.104749999999999-23.4955-2.905-31.871 5.47225-8.379000000000001 8.37725-10.577 21.18375-5.47225 31.871 0.602 1.2565 1.855 1.9914999999999998 3.1605 1.9914999999999998 0.5057499999999999 0 1.0202499999999999-0.11025 1.50675-0.343 1.7429999999999999-0.833 2.48325-2.9225 1.6484999999999999-4.667249999999999C40.216750000000005 64.04124999999999 41.867 54.43375 48.151250000000005 48.151250000000005zM82.79775000000001 82.79775000000001c8.379000000000001-8.37725 10.577-21.18375 5.47225-31.871-0.8365-1.74475-2.9259999999999997-2.48325-4.667249999999999-1.6484999999999999-1.7429999999999999 0.833-2.48325 2.9225-1.6484999999999999 4.667249999999999 3.829 8.01325 2.17875 17.619-4.1055 23.90325-6.28425 6.2825-15.888250000000001 7.93625-23.90325 4.1055-1.74475-0.8312499999999999-3.83425-0.09625-4.667249999999999 1.65025-0.83475 1.74475-0.0945 3.8325 1.6484999999999999 4.667249999999999 3.8395 1.834 7.953749999999999 2.7265 12.03825 2.72475C70.24674999999999 90.9965 77.43225 88.165 82.79775000000001 82.79775000000001z"></path></g></g></svg>