<svg version="1.1" xmlns="http://www.w3.org/2000/svg" xmlns:xlink="http://www.w3.org/1999/xlink" width="3300" height="2200" viewBox="0 0 3300 2200">
    <g id="Notes">
        <rect height="2200" id="artboard" style="fill:white;opacity:1" width="3300" x="0" y="0"></rect>
        <line style="fill:none;stroke:black;opacity:1;stroke-width:0.5;" x1="263" x2="3036" y1="292" y2="292"></line>
        <text style="stroke:none;fill:black;font-family:sans-serif;font-size:13;font-weight:bold;" transform="matrix(1 0 0 1 263 322)">Weight/Scale Variations</text>
        <text style="stroke:none;fill:black;font-family:sans-serif;font-size:13;text-anchor:middle;" transform="matrix(1 0 0 1 559.711 322)">Ultralight</text>
        <text style="stroke:none;fill:black;font-family:sans-serif;font-size:13;text-anchor:middle;" transform="matrix(1 0 0 1 856.422 322)">Thin</text>
        <text style="stroke:none;fill:black;font-family:sans-serif;font-size:13;text-anchor:middle;" transform="matrix(1 0 0 1 1153.13 322)">Light</text>
        <text style="stroke:none;fill:black;font-family:sans-serif;font-size:13;text-anchor:middle;" transform="matrix(1 0 0 1 1449.84 322)">Regular</text>
        <text style="stroke:none;fill:black;font-family:sans-serif;font-size:13;text-anchor:middle;" transform="matrix(1 0 0 1 1746.56 322)">Medium</text>
        <text style="stroke:none;fill:black;font-family:sans-serif;font-size:13;text-anchor:middle;" transform="matrix(1 0 0 1 2043.27 322)">Semibold</text>
        <text style="stroke:none;fill:black;font-family:sans-serif;font-size:13;text-anchor:middle;" transform="matrix(1 0 0 1 2339.98 322)">Bold</text>
        <text style="stroke:none;fill:black;font-family:sans-serif;font-size:13;text-anchor:middle;" transform="matrix(1 0 0 1 2636.69 322)">Heavy</text>
        <text style="stroke:none;fill:black;font-family:sans-serif;font-size:13;text-anchor:middle;" transform="matrix(1 0 0 1 2933.4 322)">Black</text>
        <line style="fill:none;stroke:black;opacity:1;stroke-width:0.5;" x1="263" x2="3036" y1="1903" y2="1903"></line>
        <g transform="matrix(1 0 0 1 263 1933)">
            <path d="M9.24805 0.830078Q10.8691 0.830078 12.2949 0.214844Q13.7207-0.400391 14.8096-1.49414Q15.8984-2.58789 16.5186-4.01367Q17.1387-5.43945 17.1387-7.05078Q17.1387-8.66211 16.5186-10.0879Q15.8984-11.5137 14.8047-12.6074Q13.7109-13.7012 12.2852-14.3164Q10.8594-14.9316 9.23828-14.9316Q7.62695-14.9316 6.20117-14.3164Q4.77539-13.7012 3.69141-12.6074Q2.60742-11.5137 1.9873-10.0879Q1.36719-8.66211 1.36719-7.05078Q1.36719-5.43945 1.9873-4.01367Q2.60742-2.58789 3.69629-1.49414Q4.78516-0.400391 6.21094 0.214844Q7.63672 0.830078 9.24805 0.830078ZM9.24805-0.654297Q7.91992-0.654297 6.7627-1.14746Q5.60547-1.64062 4.73145-2.51953Q3.85742-3.39844 3.36426-4.56055Q2.87109-5.72266 2.87109-7.05078Q2.87109-8.37891 3.35938-9.54102Q3.84766-10.7031 4.72168-11.582Q5.5957-12.4609 6.75293-12.9541Q7.91016-13.4473 9.23828-13.4473Q10.5762-13.4473 11.7334-12.9541Q12.8906-12.4609 13.7695-11.582Q14.6484-10.7031 15.1465-9.54102Q15.6445-8.37891 15.6445-7.05078Q15.6445-5.72266 15.1514-4.56055Q14.6582-3.39844 13.7842-2.51953Q12.9102-1.64062 11.748-1.14746Q10.5859-0.654297 9.24805-0.654297ZM5.83984-7.04102Q5.83984-6.71875 6.04492-6.51855Q6.25-6.31836 6.5918-6.31836L8.50586-6.31836L8.50586-4.39453Q8.50586-4.0625 8.70605-3.85742Q8.90625-3.65234 9.22852-3.65234Q9.56055-3.65234 9.76562-3.85742Q9.9707-4.0625 9.9707-4.39453L9.9707-6.31836L11.8945-6.31836Q12.2266-6.31836 12.4316-6.51855Q12.6367-6.71875 12.6367-7.04102Q12.6367-7.37305 12.4316-7.57812Q12.2266-7.7832 11.8945-7.7832L9.9707-7.7832L9.9707-9.69727Q9.9707-10.0391 9.76562-10.2441Q9.56055-10.4492 9.22852-10.4492Q8.90625-10.4492 8.70605-10.2441Q8.50586-10.0391 8.50586-9.69727L8.50586-7.7832L6.5918-7.7832Q6.25-7.7832 6.04492-7.57812Q5.83984-7.37305 5.83984-7.04102Z"></path>
        </g>
        <g transform="matrix(1 0 0 1 281.867 1933)">
            <path d="M11.709 2.91016Q13.75 2.91016 15.5518 2.12891Q17.3535 1.34766 18.7305-0.0292969Q20.1074-1.40625 20.8887-3.20801Q21.6699-5.00977 21.6699-7.05078Q21.6699-9.0918 20.8887-10.8936Q20.1074-12.6953 18.7305-14.0723Q17.3535-15.4492 15.5469-16.2305Q13.7402-17.0117 11.6992-17.0117Q9.6582-17.0117 7.85645-16.2305Q6.05469-15.4492 4.68262-14.0723Q3.31055-12.6953 2.5293-10.8936Q1.74805-9.0918 1.74805-7.05078Q1.74805-5.00977 2.5293-3.20801Q3.31055-1.40625 4.6875-0.0292969Q6.06445 1.34766 7.86621 2.12891Q9.66797 2.91016 11.709 2.91016ZM11.709 1.25Q9.98047 1.25 8.47656 0.605469Q6.97266-0.0390625 5.83496-1.17676Q4.69727-2.31445 4.05762-3.81836Q3.41797-5.32227 3.41797-7.05078Q3.41797-8.7793 4.05762-10.2832Q4.69727-11.7871 5.83008-12.9297Q6.96289-14.0723 8.4668-14.7119Q9.9707-15.3516 11.6992-15.3516Q13.4277-15.3516 14.9316-14.7119Q16.4355-14.0723 17.5781-12.9297Q18.7207-11.7871 19.3652-10.2832Q20.0098-8.7793 20.0098-7.05078Q20.0098-5.32227 19.3701-3.81836Q18.7305-2.31445 17.5928-1.17676Q16.4551-0.0390625 14.9463 0.605469Q13.4375 1.25 11.709 1.25ZM7.39258-7.04102Q7.39258-6.68945 7.62695-6.46484Q7.86133-6.24023 8.23242-6.24023L10.8789-6.24023L10.8789-3.57422Q10.8789-3.21289 11.1035-2.9834Q11.3281-2.75391 11.6797-2.75391Q12.0508-2.75391 12.2852-2.9834Q12.5195-3.21289 12.5195-3.57422L12.5195-6.24023L15.1758-6.24023Q15.5371-6.24023 15.7715-6.46484Q16.0059-6.68945 16.0059-7.04102Q16.0059-7.41211 15.7715-7.6416Q15.5371-7.87109 15.1758-7.87109L12.5195-7.87109L12.5195-10.5176Q12.5195-10.8984 12.2852-11.1279Q12.0508-11.3574 11.6797-11.3574Q11.3281-11.3574 11.1035-11.1279Q10.8789-10.8984 10.8789-10.5176L10.8789-7.87109L8.23242-7.87109Q7.85156-7.87109 7.62207-7.6416Q7.39258-7.41211 7.39258-7.04102Z"></path>
        </g>
        <g transform="matrix(1 0 0 1 305.646 1933)">
            <path d="M14.9707 5.66406Q17.0605 5.66406 18.96 5.01465Q20.8594 4.36523 22.4512 3.19336Q24.043 2.02148 25.2197 0.429688Q26.3965-1.16211 27.0459-3.06641Q27.6953-4.9707 27.6953-7.05078Q27.6953-9.14062 27.0459-11.04Q26.3965-12.9395 25.2197-14.5312Q24.043-16.123 22.4512-17.2998Q20.8594-18.4766 18.9551-19.126Q17.0508-19.7754 14.9609-19.7754Q12.8711-19.7754 10.9717-19.126Q9.07227-18.4766 7.48535-17.2998Q5.89844-16.123 4.72168-14.5312Q3.54492-12.9395 2.90039-11.04Q2.25586-9.14062 2.25586-7.05078Q2.25586-4.9707 2.90527-3.06641Q3.55469-1.16211 4.72656 0.429688Q5.89844 2.02148 7.49023 3.19336Q9.08203 4.36523 10.9814 5.01465Q12.8809 5.66406 14.9707 5.66406ZM14.9707 3.84766Q13.1641 3.84766 11.5283 3.2959Q9.89258 2.74414 8.53516 1.74805Q7.17773 0.751953 6.17676-0.610352Q5.17578-1.97266 4.62891-3.6084Q4.08203-5.24414 4.08203-7.05078Q4.08203-8.86719 4.62891-10.5029Q5.17578-12.1387 6.17188-13.501Q7.16797-14.8633 8.52539-15.8594Q9.88281-16.8555 11.5186-17.4023Q13.1543-17.9492 14.9609-17.9492Q16.7773-17.9492 18.4131-17.4023Q20.0488-16.8555 21.4111-15.8594Q22.7734-14.8633 23.7695-13.501Q24.7656-12.1387 25.3174-10.5029Q25.8691-8.86719 25.8691-7.05078Q25.8789-5.24414 25.332-3.6084Q24.7852-1.97266 23.7842-0.610352Q22.7832 0.751953 21.4209 1.74805Q20.0586 2.74414 18.4229 3.2959Q16.7871 3.84766 14.9707 3.84766ZM9.45312-7.04102Q9.45312-6.66016 9.71191-6.41113Q9.9707-6.16211 10.3711-6.16211L14.0625-6.16211L14.0625-2.46094Q14.0625-2.06055 14.3115-1.80664Q14.5605-1.55273 14.9414-1.55273Q15.3516-1.55273 15.6055-1.80664Q15.8594-2.06055 15.8594-2.46094L15.8594-6.16211L19.5605-6.16211Q19.9609-6.16211 20.2148-6.41113Q20.4688-6.66016 20.4688-7.04102Q20.4688-7.45117 20.2148-7.70508Q19.9609-7.95898 19.5605-7.95898L15.8594-7.95898L15.8594-11.6504Q15.8594-12.0605 15.6055-12.3145Q15.3516-12.5684 14.9414-12.5684Q14.5605-12.5684 14.3115-12.3096Q14.0625-12.0508 14.0625-11.6504L14.0625-7.95898L10.3711-7.95898Q9.96094-7.95898 9.70703-7.70508Q9.45312-7.45117 9.45312-7.04102Z"></path>
        </g>
        <text style="stroke:none;fill:black;font-family:sans-serif;font-size:13;font-weight:bold;" transform="matrix(1 0 0 1 263 1953)">Design Variations</text>
        <text style="stroke:none;fill:black;font-family:sans-serif;font-size:13;" transform="matrix(1 0 0 1 263 1971)">Symbols are supported in up to nine weights and three scales.</text>
        <text style="stroke:none;fill:black;font-family:sans-serif;font-size:13;" transform="matrix(1 0 0 1 263 1989)">For optimal layout with text and other symbols, vertically align</text>
        <text style="stroke:none;fill:black;font-family:sans-serif;font-size:13;" transform="matrix(1 0 0 1 263 2007)">symbols with the adjacent text.</text>
        <line style="fill:none;stroke:#00AEEF;stroke-width:0.5;opacity:1.0;" x1="776" x2="776" y1="1919" y2="1933"></line>
        <g transform="matrix(1 0 0 1 776 1933)">
            <path d="M3.31055 0.15625Q3.70117 0.15625 3.91602-0.00976562Q4.13086-0.175781 4.26758-0.585938L5.52734-4.0332L11.2891-4.0332L12.5488-0.585938Q12.6855-0.175781 12.9004-0.00976562Q13.1152 0.15625 13.4961 0.15625Q13.8867 0.15625 14.1162-0.0585938Q14.3457-0.273438 14.3457-0.644531Q14.3457-0.869141 14.2383-1.17188L9.6582-13.3691Q9.48242-13.8184 9.17969-14.043Q8.87695-14.2676 8.4082-14.2676Q7.5-14.2676 7.17773-13.3789L2.59766-1.16211Q2.49023-0.859375 2.49023-0.634766Q2.49023-0.263672 2.70996-0.0537109Q2.92969 0.15625 3.31055 0.15625ZM6.00586-5.51758L8.37891-12.0898L8.42773-12.0898L10.8008-5.51758Z"></path>
        </g>
        <line style="fill:none;stroke:#00AEEF;stroke-width:0.5;opacity:1.0;" x1="793.197" x2="793.197" y1="1919" y2="1933"></line>
        <text style="stroke:none;fill:black;font-family:sans-serif;font-size:13;font-weight:bold;" transform="matrix(1 0 0 1 776 1953)">Margins</text>
        <text style="stroke:none;fill:black;font-family:sans-serif;font-size:13;" transform="matrix(1 0 0 1 776 1971)">Leading and trailing margins on the left and right side of each symbol</text>
        <text style="stroke:none;fill:black;font-family:sans-serif;font-size:13;" transform="matrix(1 0 0 1 776 1989)">can be adjusted by modifying the x-location of the margin guidelines.</text>
        <text style="stroke:none;fill:black;font-family:sans-serif;font-size:13;" transform="matrix(1 0 0 1 776 2007)">Modifications are automatically applied proportionally to all</text>
        <text style="stroke:none;fill:black;font-family:sans-serif;font-size:13;" transform="matrix(1 0 0 1 776 2025)">scales and weights.</text>
        <g transform="matrix(1 0 0 1 1289 1933)">
            <path d="M2.8418 1.86523L4.54102 3.57422Q5.18555 4.22852 5.90332 4.17969Q6.62109 4.13086 7.31445 3.35938L18.0078-8.42773L17.041-9.4043L6.42578 2.27539Q6.16211 2.57812 5.89355 2.61719Q5.625 2.65625 5.27344 2.30469L4.10156 1.14258Q3.75 0.791016 3.79395 0.522461Q3.83789 0.253906 4.14062-0.0195312L15.6152-10.8203L14.6387-11.7871L3.04688-0.898438Q2.30469-0.214844 2.25098 0.498047Q2.19727 1.21094 2.8418 1.86523ZM9.25781-16.3281Q8.94531-16.0254 8.90625-15.6348Q8.86719-15.2441 9.04297-14.9512Q9.21875-14.6777 9.55566-14.541Q9.89258-14.4043 10.3809-14.5215Q11.4746-14.7754 12.5977-14.7314Q13.7207-14.6875 14.7949-13.9844L14.209-12.5293Q13.9551-11.9043 14.0674-11.4404Q14.1797-10.9766 14.5801-10.5664L16.875-8.25195Q17.2363-7.88086 17.5781-7.82227Q17.9199-7.76367 18.3398-7.8418L19.4043-8.03711L20.0684-7.36328L20.0293-6.80664Q20-6.43555 20.1221-6.12305Q20.2441-5.81055 20.6055-5.44922L21.3672-4.70703Q21.7285-4.3457 22.1533-4.33105Q22.5781-4.31641 22.9297-4.66797L25.8398-7.58789Q26.1914-7.93945 26.1816-8.35449Q26.1719-8.76953 25.8105-9.13086L25.0391-9.89258Q24.6875-10.2539 24.3799-10.3857Q24.0723-10.5176 23.7109-10.4883L23.1348-10.4395L22.4902-11.0742L22.7344-12.1973Q22.832-12.6172 22.6953-12.9834Q22.5586-13.3496 22.1191-13.7891L19.9219-15.9766Q18.6719-17.2168 17.2607-17.8369Q15.8496-18.457 14.4189-18.4814Q12.9883-18.5059 11.665-17.959Q10.3418-17.4121 9.25781-16.3281ZM10.752-15.957Q11.6602-16.6211 12.7002-16.9043Q13.7402-17.1875 14.8047-17.085Q15.8691-16.9824 16.8701-16.5137Q17.8711-16.0449 18.7012-15.2051L21.1328-12.793Q21.3086-12.6172 21.3525-12.4512Q21.3965-12.2852 21.3379-12.0312L21.0156-10.5469L22.5195-9.0625L23.5059-9.12109Q23.6914-9.13086 23.7891-9.09668Q23.8867-9.0625 24.0332-8.91602L24.6094-8.33984L22.168-5.89844L21.5918-6.47461Q21.4453-6.62109 21.4062-6.71875Q21.3672-6.81641 21.377-7.01172L21.4453-7.98828L19.9512-9.47266L18.4277-9.21875Q18.1836-9.16992 18.042-9.2041Q17.9004-9.23828 17.7148-9.41406L15.7129-11.416Q15.5176-11.5918 15.4932-11.7529Q15.4688-11.9141 15.5859-12.1875L16.4648-14.2773Q15.293-15.3711 13.8281-15.791Q12.3633-16.2109 10.8398-15.7617Q10.7227-15.7324 10.6885-15.8057Q10.6543-15.8789 10.752-15.957Z"></path>
        </g>
        <text style="stroke:none;fill:black;font-family:sans-serif;font-size:13;font-weight:bold;" transform="matrix(1 0 0 1 1289 1953)">Exporting</text>
        <text style="stroke:none;fill:black;font-family:sans-serif;font-size:13;" transform="matrix(1 0 0 1 1289 1971)">Symbols should be outlined when exporting to ensure the</text>
        <text style="stroke:none;fill:black;font-family:sans-serif;font-size:13;" transform="matrix(1 0 0 1 1289 1989)">design is preserved when submitting to Xcode.</text>
        <text id="template-version" style="stroke:none;fill:black;font-family:sans-serif;font-size:13;text-anchor:end;" transform="matrix(1 0 0 1 3036 1933)">Template v.3.0</text>
        <text style="stroke:none;fill:black;font-family:sans-serif;font-size:13;text-anchor:end;" transform="matrix(1 0 0 1 3036 1951)">Requires Xcode 13 or greater</text>
        <text id="descriptive-name" style="stroke:none;fill:black;font-family:sans-serif;font-size:13;text-anchor:end;" transform="matrix(1 0 0 1 3036 1969)">Generated from custom.pencil.circle</text>
        <text style="stroke:none;fill:black;font-family:sans-serif;font-size:13;text-anchor:end;" transform="matrix(1 0 0 1 3036 1987)">Typeset at 100 points</text>
        <text style="stroke:none;fill:black;font-family:sans-serif;font-size:13;" transform="matrix(1 0 0 1 263 726)">Small</text>
        <text style="stroke:none;fill:black;font-family:sans-serif;font-size:13;" transform="matrix(1 0 0 1 263 1156)">Medium</text>
        <text style="stroke:none;fill:black;font-family:sans-serif;font-size:13;" transform="matrix(1 0 0 1 263 1586)">Large</text>
    </g>
    <g id="Guides">
        <g id="H-reference" style="fill:#27AAE1;stroke:none;" transform="matrix(1 0 0 1 339 696)">
            <path d="M0.976562 0L3.66211 0L29.3457-67.1387L30.0293-67.1387L30.0293-70.459L28.125-70.459ZM11.6699-24.4629L46.9727-24.4629L46.2402-26.709L12.4512-26.709ZM55.127 0L57.7637 0L30.6152-70.459L29.4434-70.459L29.4434-67.1387Z"></path>
        </g>
        <line id="Baseline-S" style="fill:none;stroke:#27AAE1;opacity:1;stroke-width:0.5;" x1="263" x2="3036" y1="696" y2="696"></line>
        <line id="Capline-S" style="fill:none;stroke:#27AAE1;opacity:1;stroke-width:0.5;" x1="263" x2="3036" y1="625.541" y2="625.541"></line>
        <g id="H-reference" style="fill:#27AAE1;stroke:none;" transform="matrix(1 0 0 1 339 1126)">
            <path d="M0.976562 0L3.66211 0L29.3457-67.1387L30.0293-67.1387L30.0293-70.459L28.125-70.459ZM11.6699-24.4629L46.9727-24.4629L46.2402-26.709L12.4512-26.709ZM55.127 0L57.7637 0L30.6152-70.459L29.4434-70.459L29.4434-67.1387Z"></path>
        </g>
        <line id="Baseline-M" style="fill:none;stroke:#27AAE1;opacity:1;stroke-width:0.5;" x1="263" x2="3036" y1="1126" y2="1126"></line>
        <line id="Capline-M" style="fill:none;stroke:#27AAE1;opacity:1;stroke-width:0.5;" x1="263" x2="3036" y1="1055.54" y2="1055.54"></line>
        <g id="H-reference" style="fill:#27AAE1;stroke:none;" transform="matrix(1 0 0 1 339 1556)">
            <path d="M0.976562 0L3.66211 0L29.3457-67.1387L30.0293-67.1387L30.0293-70.459L28.125-70.459ZM11.6699-24.4629L46.9727-24.4629L46.2402-26.709L12.4512-26.709ZM55.127 0L57.7637 0L30.6152-70.459L29.4434-70.459L29.4434-67.1387Z"></path>
        </g>
        <line id="Baseline-L" style="fill:none;stroke:#27AAE1;opacity:1;stroke-width:0.5;" x1="263" x2="3036" y1="1556" y2="1556"></line>
        <line id="Capline-L" style="fill:none;stroke:#27AAE1;opacity:1;stroke-width:0.5;" x1="263" x2="3036" y1="1485.54" y2="1485.54"></line>
        <line id="left-margin-Ultralight-S" style="fill:none;stroke:#00AEEF;stroke-width:0.5;opacity:1.0;" x1="502.89896968841555" x2="502.89896968841555" y1="600.784" y2="720.121"></line>
        <line id="right-margin-Ultralight-S" style="fill:none;stroke:#00AEEF;stroke-width:0.5;opacity:1.0;" x1="616.523027381897" x2="616.523027381897" y1="600.784" y2="720.121"></line>
        <line id="left-margin-Regular-S" style="fill:none;stroke:#00AEEF;stroke-width:0.5;opacity:1.0;" x1="1387.2894526290893" x2="1387.2894526290893" y1="600.784" y2="720.121"></line>
        <line id="right-margin-Regular-S" style="fill:none;stroke:#00AEEF;stroke-width:0.5;opacity:1.0;" x1="1512.4004887771607" x2="1512.4004887771607" y1="600.784" y2="720.121"></line>
        <line id="left-margin-Black-S" style="fill:none;stroke:#00AEEF;stroke-width:0.5;opacity:1.0;" x1="2868.505962371826" x2="2868.505962371826" y1="600.784" y2="720.121"></line>
        <line id="right-margin-Black-S" style="fill:none;stroke:#00AEEF;stroke-width:0.5;opacity:1.0;" x1="2998.294086456299" x2="2998.294086456299" y1="600.784" y2="720.121"></line>
    </g>
<g id="Symbols"><g id="Ultralight-S" transform="matrix(1,0,0,1,504.96099853515625,606.0205078125)"><path d="M89.08701 85.49322l-6.254639999999999-17.18931 2.0564099999999996-0.7489800000000001 6.254639999999999 17.18931L89.08701 85.49322z"></path><path d="M80.29196999999999 89.78999999999999c-0.44675999999999993 0-0.86724-0.27594-1.0292999999999999-0.72051-0.20804999999999998-0.56721 0.08541-1.19574 0.65481-1.40379l19.64649-7.15035c0.57159-0.20804999999999998 1.19574 0.0876 1.40379 0.65481s-0.08541 1.19574-0.65481 1.40379l-19.64649 7.15035C80.54163 89.7681 80.4168 89.78999999999999 80.29196999999999 89.78999999999999z"></path><path d="M91.99533 47.38941c3.41202 7.77669-1.03368 16.65057-5.49033 18.31059-6.48897 2.4177600000000004-13.87365-0.12483-16.25856-8.27601L62.415 30.66h22.239449999999998L91.99533 47.38941zM78.84 41.61c1.2088800000000002 0 2.19-0.98112 2.19-2.19 0-1.2088800000000002-0.98112-2.19-2.19-2.19s-2.19 0.98112-2.19 2.19C76.64999999999999 40.628879999999995 77.63112 41.61 78.84 41.61z"></path><path d="M78.51369 69.10545c-2.43747 0-4.85961-0.57597-7.11312-1.71696-3.93762-1.9929000000000001-6.789-5.42244-8.02635-9.6579l-10.7967-36.897119999999994c-0.16205999999999998-0.55407 0.13359-1.14099 0.6767099999999999-1.3358999999999999l22.92273-8.34171c0.54531-0.1971 1.14537 0.06132 1.37751 0.58911l15.446069999999999 35.20206c1.7739 4.04055 1.79361 8.49939 0.059129999999999995 12.557459999999999s-4.9450199999999995 7.02552-9.02718 8.70087C82.62651 68.78133 80.33358 69.10545 78.51369 69.10545zM54.96681 21.205769999999998l10.50762 35.90942999999999c1.06872 3.6485399999999997 3.52371 6.60285 6.91383 8.31981 3.3945 1.71696 7.73727 1.67535 10.79889 0.6460499999999999 4.08216-1.37313 6.36414-3.942 7.85772-7.437239999999999 1.49577-3.49524 1.47825-7.3365-0.05037-10.81641L75.96015 13.56705 54.96681 21.205769999999998z"></path><path d="M20.35824 94.25321999999998l-2.0564099999999996-0.7489800000000001 6.25683-17.18931 2.0564099999999996 0.7489800000000001L20.35824 94.25321999999998z"></path><path d="M29.15328 98.55c-0.12483 0-0.24966-0.0219-0.37449000000000005-0.0657L9.132299999999999 91.33394999999999c-0.5694-0.20586-0.8628600000000001-0.83439-0.65481-1.40379 0.20804999999999998-0.5694 0.83439-0.86067 1.40379-0.65481l19.64649 7.15035c0.5694 0.20586 0.8628600000000001 0.83439 0.65481 1.40379C30.018330000000002 98.27406 29.60004 98.55 29.15328 98.55z"></path><path d="M30.4848 39.42H52.56l-7.83144 26.76399C42.345839999999995 74.33516999999999 35.04 76.64999999999999 31.57761 75.87035999999999c-8.28477-1.86588-11.845709999999999-11.94645-8.43369-19.720950000000002L30.4848 39.42zM42.1575 49.275c0.9066599999999999 0 1.6425-0.73584 1.6425-1.6425 0-0.9066599999999999-0.73584-1.6425-1.6425-1.6425s-1.6425 0.73584-1.6425 1.6425C40.515 48.53916 41.25084 49.275 42.1575 49.275z"></path><path d="M30.93156 77.86545c-1.8198899999999998 0-3.6485399999999997-0.31973999999999997-5.42244-0.96579-4.14786-1.5089099999999998-7.38687-4.57491-9.12135-8.63298-1.73448-4.05807-1.71258-8.51691 0.059129999999999995-12.557459999999999l15.446069999999999-35.20206c0.22995-0.52779 0.82782-0.78621 1.37751-0.58911l22.92054 8.34171c0.5431199999999999 0.1971 0.83877 0.7818299999999999 0.6767099999999999 1.3358999999999999l-10.79451 36.897119999999994c-1.23735 4.23546-4.08873 7.665-8.02635 9.6579C35.79336 77.28948 33.36903 77.86545 30.93156 77.86545zM33.48729 22.32705L18.455129999999997 56.58741c-1.5286199999999999 3.47991-1.5461399999999998 7.323359999999999-0.05037 10.81641 1.4935800000000001 3.49524 4.28364 6.13638 7.85553 7.437239999999999 3.5740799999999995 1.29867 7.40877 1.07091 10.79889-0.6460499999999999 3.3923099999999997-1.71696 5.849489999999999-4.67127 6.91602-8.31981l10.505429999999999-35.90942999999999L33.48729 22.32705z"></path><path d="M48.18 17.52c0 1.2088800000000002-0.98112 2.19-2.19 2.19s-2.19-0.98112-2.19-2.19 0.98112-2.19 2.19-2.19S48.18 16.31112 48.18 17.52z"></path><path d="M54.75 12.5925c0 0.9066599999999999-0.73584 1.6425-1.6425 1.6425S51.464999999999996 13.49916 51.464999999999996 12.5925 52.20083999999999 10.95 53.1075 10.95 54.75 11.68584 54.75 12.5925z"></path></g><g id="Regular-S" transform="matrix(1,0,0,1,1392.564970703125,603.4905078125)"><path d="M93.33776 88.68555l-6.4278900000000005-17.66193 6.7303999999999995-2.4487200000000002 6.4278900000000005 17.66193L93.33776 88.68555z"></path><path d="M86.61094000000001 94.71606c-1.46064 0-2.83536-0.9021600000000001-3.36341-2.35564-0.67662-1.85802 0.28103-3.91294 2.13905-4.587770000000001l20.18404-7.34616c1.85265-0.67304 3.91294 0.28103 4.587770000000001 2.13905 0.67662 1.85802-0.28103 3.91294-2.13905 4.587770000000001l-20.18404 7.34616C87.43076 94.64625 87.01727 94.71606 86.61094000000001 94.71606z"></path><path d="M100.24000000000001 48.69695c3.50482 7.988770000000001 0.4475 15.56763-4.475 17.53305-8.10333 3.23453-14.62609 1.15097-17.07481-7.222650000000001L69.80463 28.64h21.633940000000003L100.24000000000001 48.69695zM84.13 44.75c1.97795 0 3.58-1.60205 3.58-3.58 0-1.97795-1.60205-3.58-3.58-3.58s-3.58 1.60205-3.58 3.58C80.55 43.14795 82.15205 44.75 84.13 44.75z"></path><path d="M84.81199000000001 73.4437c-2.9105399999999997 0-5.81213-0.67483-8.44701-2.0083800000000003-4.5895600000000005-2.32342-8.05142-6.486960000000001-9.49774-11.423779999999999L55.77819 22.1065c-0.52984-1.81148 0.43855-3.7232000000000003 2.21244-4.36939l23.547449999999998-8.57052c1.76852-0.64619 3.7428900000000005 0.19511 4.50185 1.9260400000000002l15.87014 36.16695c2.06745 4.71128 2.0925100000000003 10.12603 0.06981 14.85521s-5.95533 8.45059-10.78833 10.21016C89.13484 73.07138 86.97073 73.4437 84.81199000000001 73.4437zM63.59333 23.31654l10.147509999999999 34.68483c0.90395 3.08954 2.98393 5.59196 5.85509 7.04544 2.87116 1.45348 6.11822 1.64859 9.1469 0.54774 3.02331-1.10085 5.3879-3.3365600000000004 6.65343-6.297219999999999 1.26553-2.95887 1.25121-6.21309-0.04117-9.16122L80.83282 17.04259 63.59333 23.31654z"></path><path d="M23.30043 97.63555000000001l-6.72682-2.4487200000000002 6.42968-17.66193 6.72682 2.4487200000000002L23.30043 97.63555000000001z"></path><path d="M30.029040000000002 103.66606c-0.40812000000000004 0-0.8198200000000001-0.06981-1.2243600000000001-0.21659L8.62064 96.10152000000001c-1.85802-0.67662-2.81567-2.7297499999999997-2.13905-4.587770000000001 0.67483-1.85802 2.73333-2.81209 4.587770000000001-2.13905l20.18404 7.34616c1.85802 0.67662 2.81567 2.7297499999999997 2.13905 4.587770000000001C32.864399999999996 102.76389999999999 31.49147 103.66606 30.029040000000002 103.66606z"></path><path d="M35.13949 37.59h20.286070000000002L46.54 67.95735c-2.45051 8.37362-3.33835 12.936330000000002-11.53655 9.952399999999999s-12.17021-12.27403-8.66539-20.262800000000002L35.13949 37.59zM42.065 50.120000000000005c1.4821199999999999 0 2.685-1.2028800000000002 2.685-2.685S43.54712 44.75 42.065 44.75 39.38 45.95288 39.38 47.435 40.58288 50.120000000000005 42.065 50.120000000000005z"></path><path d="M31.82799 82.39370000000001c-2.15874 0-4.32106-0.37232-6.379560000000001-1.12054-4.83479-1.75957-8.76742-5.48277-10.79012-10.21195-2.0227-4.7291799999999995-1.9958500000000001-10.14393 0.0716-14.851630000000002l15.868350000000001-36.16695c0.75717-1.72914 2.73512-2.5722300000000002 4.50185-1.9260400000000002l23.54924 8.57052c1.77389 0.64619 2.74228 2.55791 2.21244 4.36939l-11.09084 37.90683c-1.44453 4.93682-4.9046 9.10036-9.49416 11.423779999999999C37.64191 81.71887 34.73853 82.39370000000001 31.82799 82.39370000000001zM35.80537 25.992590000000003l-14.520480000000001 33.09352c-1.29417 2.9463399999999997-1.30849 6.20056-0.042960000000000005 9.16122s3.6301200000000002 5.19637 6.65522 6.29901c3.02868 1.10264 6.27574 0.90395 9.1469-0.54774 2.87116-1.4552699999999998 4.9511400000000005-3.9559 5.85509-7.04544l10.1493-34.68483L35.80537 25.992590000000003z"></path><path d="M51.910000000000004 14.32c0 1.97795-1.60205 3.58-3.58 3.58s-3.58-1.60205-3.58-3.58 1.60205-3.58 3.58-3.58S51.910000000000004 12.342049999999999 51.910000000000004 14.32z"></path><path d="M60.86 9.845C60.86 11.32712 59.657120000000006 12.530000000000001 58.175000000000004 12.530000000000001S55.49 11.32712 55.49 9.845 56.69288 7.16 58.175000000000004 7.16 60.86 8.362879999999999 60.86 9.845z"></path></g><g id="Black-S" transform="matrix(1,0,0,1,2870.4000244140625,597.7705078125)"><path d="M94.682 94.90075l-6.2860000000000005-17.26725 13.1565-4.788 6.2860000000000005 17.26725L94.682 94.90075z"></path><path d="M91.392 103.10125c-2.8594999999999997 0-5.5440000000000005-1.764-6.57825-4.60775-1.323-3.633 0.5495-7.64925 4.1842500000000005-8.972249999999999l19.733-7.182c3.6294999999999997-1.32125 7.651 0.55125 8.972249999999999 4.1842500000000005 1.323 3.633-0.5495 7.64925-4.1842500000000005 8.972249999999999l-19.733 7.182C92.99674999999999 102.96475000000001 92.1865 103.10125 91.392 103.10125z"></path><path d="M107.34675 54.60875c3.4265 7.81025 1.2494999999999998 13.902-3.22175 15.39125-5.25 1.75-15.680000000000001 2.87525-18.07575-5.31125L77.875 36.75h21.63525L107.34675 54.60875zM87.5 49c1.9320000000000002 0 3.5-1.5662500000000001 3.5-3.5 0-1.9337499999999999-1.568-3.5-3.5-3.5s-3.5 1.5662500000000001-3.5 3.5C84 47.43375 85.568 49 87.5 49z"></path><path d="M89.63499999999999 82.30075000000001c-3.3914999999999997 0-6.7725-0.7857500000000001-9.841999999999999-2.33975-5.34625-2.7055000000000002-9.3765-7.5565-11.05825-13.307L57.89 29.595999999999997c-1.03775-3.542 0.85575-7.281749999999999 4.32425-8.5435l23.023-8.379000000000001c3.47025-1.26525 7.32025 0.38675 8.80425 3.766l15.51375 35.35875c2.408 5.48625 2.43775 11.791500000000001 0.08225 17.30225-2.35725 5.51075-6.93875 9.845500000000001-12.57025 11.8965C94.66975000000001 81.8685 92.14975 82.30075000000001 89.63499999999999 82.30075000000001zM73.17099999999999 31.962l9.00025 30.759750000000004c0.6107499999999999 2.0825 2.01075 3.7695 3.94625 4.74775 1.939 0.9817500000000001 4.1265 1.11125 6.1635 0.36924999999999997 2.0387500000000003-0.742 3.6312500000000005-2.2505 4.485250000000001-4.2455 0.85225-1.9949999999999999 0.84175-4.186-0.0315-6.17225l-12.8765-29.34925L73.17099999999999 31.962z"></path><path d="M32.786249999999995 103.65075l-13.1565-4.788 6.28425-17.26725 13.1565 4.788L32.786249999999995 103.65075z"></path><path d="M36.0745 111.85125c-0.79625 0-1.603-0.1365-2.394-0.4235L13.9475 104.244c-3.633-1.323-5.5055-5.33925-4.1842500000000005-8.972249999999999s5.3445-5.50375 8.972249999999999-4.1842500000000005l19.733 7.182c3.633 1.323 5.5055 5.33925 4.1842500000000005 8.972249999999999C41.6185 110.0855 38.934000000000005 111.85125 36.0745 111.85125z"></path><path d="M43.211 45.5H63l-8.17425 27.93875c-2.39575 8.1865-2.7737499999999997 12.05575-10.9795 9.729999999999999-11.3575-3.22-11.89825-11.99975-8.47175-19.810000000000002L43.211 45.5zM45.5 56c1.4489999999999998 0 2.625-1.1760000000000002 2.625-2.625S46.949 50.75 45.5 50.75s-2.625 1.1760000000000002-2.625 2.625S44.051 56 45.5 56z"></path><path d="M37.8315 91.05075000000001c-2.5164999999999997 0-5.03475-0.43225-7.434-1.3054999999999999-5.6315-2.0492500000000002-10.21125-6.384-12.5685-11.89475s-2.3275-11.815999999999999 0.0805-17.304l15.5155-35.3605c1.484-3.37925 5.327-5.03125 8.80425-3.7642499999999997l23.02125 8.379000000000001c3.46675 1.26175 5.360250000000001 4.999750000000001 4.32425 8.5435l-10.84125 37.05975c-1.6835 5.75225-5.7155000000000005 10.603250000000001-11.06175 13.30875C44.60225 90.26675 41.22125 91.05075000000001 37.8315 91.05075000000001zM43.61 36.8235l-12.87825 29.34925c-0.8714999999999999 1.98625-0.882 4.179-0.029750000000000002 6.174 0.85225 1.9949999999999999 2.44475 3.50175 4.485250000000001 4.2437499999999995 2.037 0.742 4.22625 0.6124999999999999 6.1635-0.3675 1.9355000000000002-0.9800000000000001 3.33725-2.667 3.9479999999999995-4.7495l9.00025-30.759750000000004L43.61 36.8235z"></path><path d="M57.75 17.5c0 1.9337499999999999-1.5662500000000001 3.5-3.5 3.5-1.9337499999999999 0-3.5-1.5662500000000001-3.5-3.5s1.5662500000000001-3.5 3.5-3.5C56.183749999999996 14 57.75 15.56625 57.75 17.5z"></path><path d="M66.5 13.125C66.5 14.573999999999998 65.32400000000001 15.75 63.875 15.75S61.25 14.573999999999998 61.25 13.125 62.425999999999995 10.5 63.875 10.5 66.5 11.676 66.5 13.125z"></path></g></g></svg>