<svg version="1.1" xmlns="http://www.w3.org/2000/svg" xmlns:xlink="http://www.w3.org/1999/xlink" width="3300" height="2200" viewBox="0 0 3300 2200">
    <g id="Notes">
        <rect height="2200" id="artboard" style="fill:white;opacity:1" width="3300" x="0" y="0"></rect>
        <line style="fill:none;stroke:black;opacity:1;stroke-width:0.5;" x1="263" x2="3036" y1="292" y2="292"></line>
        <text style="stroke:none;fill:black;font-family:sans-serif;font-size:13;font-weight:bold;" transform="matrix(1 0 0 1 263 322)">Weight/Scale Variations</text>
        <text style="stroke:none;fill:black;font-family:sans-serif;font-size:13;text-anchor:middle;" transform="matrix(1 0 0 1 559.711 322)">Ultralight</text>
        <text style="stroke:none;fill:black;font-family:sans-serif;font-size:13;text-anchor:middle;" transform="matrix(1 0 0 1 856.422 322)">Thin</text>
        <text style="stroke:none;fill:black;font-family:sans-serif;font-size:13;text-anchor:middle;" transform="matrix(1 0 0 1 1153.13 322)">Light</text>
        <text style="stroke:none;fill:black;font-family:sans-serif;font-size:13;text-anchor:middle;" transform="matrix(1 0 0 1 1449.84 322)">Regular</text>
        <text style="stroke:none;fill:black;font-family:sans-serif;font-size:13;text-anchor:middle;" transform="matrix(1 0 0 1 1746.56 322)">Medium</text>
        <text style="stroke:none;fill:black;font-family:sans-serif;font-size:13;text-anchor:middle;" transform="matrix(1 0 0 1 2043.27 322)">Semibold</text>
        <text style="stroke:none;fill:black;font-family:sans-serif;font-size:13;text-anchor:middle;" transform="matrix(1 0 0 1 2339.98 322)">Bold</text>
        <text style="stroke:none;fill:black;font-family:sans-serif;font-size:13;text-anchor:middle;" transform="matrix(1 0 0 1 2636.69 322)">Heavy</text>
        <text style="stroke:none;fill:black;font-family:sans-serif;font-size:13;text-anchor:middle;" transform="matrix(1 0 0 1 2933.4 322)">Black</text>
        <line style="fill:none;stroke:black;opacity:1;stroke-width:0.5;" x1="263" x2="3036" y1="1903" y2="1903"></line>
        <g transform="matrix(1 0 0 1 263 1933)">
            <path d="M9.24805 0.830078Q10.8691 0.830078 12.2949 0.214844Q13.7207-0.400391 14.8096-1.49414Q15.8984-2.58789 16.5186-4.01367Q17.1387-5.43945 17.1387-7.05078Q17.1387-8.66211 16.5186-10.0879Q15.8984-11.5137 14.8047-12.6074Q13.7109-13.7012 12.2852-14.3164Q10.8594-14.9316 9.23828-14.9316Q7.62695-14.9316 6.20117-14.3164Q4.77539-13.7012 3.69141-12.6074Q2.60742-11.5137 1.9873-10.0879Q1.36719-8.66211 1.36719-7.05078Q1.36719-5.43945 1.9873-4.01367Q2.60742-2.58789 3.69629-1.49414Q4.78516-0.400391 6.21094 0.214844Q7.63672 0.830078 9.24805 0.830078ZM9.24805-0.654297Q7.91992-0.654297 6.7627-1.14746Q5.60547-1.64062 4.73145-2.51953Q3.85742-3.39844 3.36426-4.56055Q2.87109-5.72266 2.87109-7.05078Q2.87109-8.37891 3.35938-9.54102Q3.84766-10.7031 4.72168-11.582Q5.5957-12.4609 6.75293-12.9541Q7.91016-13.4473 9.23828-13.4473Q10.5762-13.4473 11.7334-12.9541Q12.8906-12.4609 13.7695-11.582Q14.6484-10.7031 15.1465-9.54102Q15.6445-8.37891 15.6445-7.05078Q15.6445-5.72266 15.1514-4.56055Q14.6582-3.39844 13.7842-2.51953Q12.9102-1.64062 11.748-1.14746Q10.5859-0.654297 9.24805-0.654297ZM5.83984-7.04102Q5.83984-6.71875 6.04492-6.51855Q6.25-6.31836 6.5918-6.31836L8.50586-6.31836L8.50586-4.39453Q8.50586-4.0625 8.70605-3.85742Q8.90625-3.65234 9.22852-3.65234Q9.56055-3.65234 9.76562-3.85742Q9.9707-4.0625 9.9707-4.39453L9.9707-6.31836L11.8945-6.31836Q12.2266-6.31836 12.4316-6.51855Q12.6367-6.71875 12.6367-7.04102Q12.6367-7.37305 12.4316-7.57812Q12.2266-7.7832 11.8945-7.7832L9.9707-7.7832L9.9707-9.69727Q9.9707-10.0391 9.76562-10.2441Q9.56055-10.4492 9.22852-10.4492Q8.90625-10.4492 8.70605-10.2441Q8.50586-10.0391 8.50586-9.69727L8.50586-7.7832L6.5918-7.7832Q6.25-7.7832 6.04492-7.57812Q5.83984-7.37305 5.83984-7.04102Z"></path>
        </g>
        <g transform="matrix(1 0 0 1 281.867 1933)">
            <path d="M11.709 2.91016Q13.75 2.91016 15.5518 2.12891Q17.3535 1.34766 18.7305-0.0292969Q20.1074-1.40625 20.8887-3.20801Q21.6699-5.00977 21.6699-7.05078Q21.6699-9.0918 20.8887-10.8936Q20.1074-12.6953 18.7305-14.0723Q17.3535-15.4492 15.5469-16.2305Q13.7402-17.0117 11.6992-17.0117Q9.6582-17.0117 7.85645-16.2305Q6.05469-15.4492 4.68262-14.0723Q3.31055-12.6953 2.5293-10.8936Q1.74805-9.0918 1.74805-7.05078Q1.74805-5.00977 2.5293-3.20801Q3.31055-1.40625 4.6875-0.0292969Q6.06445 1.34766 7.86621 2.12891Q9.66797 2.91016 11.709 2.91016ZM11.709 1.25Q9.98047 1.25 8.47656 0.605469Q6.97266-0.0390625 5.83496-1.17676Q4.69727-2.31445 4.05762-3.81836Q3.41797-5.32227 3.41797-7.05078Q3.41797-8.7793 4.05762-10.2832Q4.69727-11.7871 5.83008-12.9297Q6.96289-14.0723 8.4668-14.7119Q9.9707-15.3516 11.6992-15.3516Q13.4277-15.3516 14.9316-14.7119Q16.4355-14.0723 17.5781-12.9297Q18.7207-11.7871 19.3652-10.2832Q20.0098-8.7793 20.0098-7.05078Q20.0098-5.32227 19.3701-3.81836Q18.7305-2.31445 17.5928-1.17676Q16.4551-0.0390625 14.9463 0.605469Q13.4375 1.25 11.709 1.25ZM7.39258-7.04102Q7.39258-6.68945 7.62695-6.46484Q7.86133-6.24023 8.23242-6.24023L10.8789-6.24023L10.8789-3.57422Q10.8789-3.21289 11.1035-2.9834Q11.3281-2.75391 11.6797-2.75391Q12.0508-2.75391 12.2852-2.9834Q12.5195-3.21289 12.5195-3.57422L12.5195-6.24023L15.1758-6.24023Q15.5371-6.24023 15.7715-6.46484Q16.0059-6.68945 16.0059-7.04102Q16.0059-7.41211 15.7715-7.6416Q15.5371-7.87109 15.1758-7.87109L12.5195-7.87109L12.5195-10.5176Q12.5195-10.8984 12.2852-11.1279Q12.0508-11.3574 11.6797-11.3574Q11.3281-11.3574 11.1035-11.1279Q10.8789-10.8984 10.8789-10.5176L10.8789-7.87109L8.23242-7.87109Q7.85156-7.87109 7.62207-7.6416Q7.39258-7.41211 7.39258-7.04102Z"></path>
        </g>
        <g transform="matrix(1 0 0 1 305.646 1933)">
            <path d="M14.9707 5.66406Q17.0605 5.66406 18.96 5.01465Q20.8594 4.36523 22.4512 3.19336Q24.043 2.02148 25.2197 0.429688Q26.3965-1.16211 27.0459-3.06641Q27.6953-4.9707 27.6953-7.05078Q27.6953-9.14062 27.0459-11.04Q26.3965-12.9395 25.2197-14.5312Q24.043-16.123 22.4512-17.2998Q20.8594-18.4766 18.9551-19.126Q17.0508-19.7754 14.9609-19.7754Q12.8711-19.7754 10.9717-19.126Q9.07227-18.4766 7.48535-17.2998Q5.89844-16.123 4.72168-14.5312Q3.54492-12.9395 2.90039-11.04Q2.25586-9.14062 2.25586-7.05078Q2.25586-4.9707 2.90527-3.06641Q3.55469-1.16211 4.72656 0.429688Q5.89844 2.02148 7.49023 3.19336Q9.08203 4.36523 10.9814 5.01465Q12.8809 5.66406 14.9707 5.66406ZM14.9707 3.84766Q13.1641 3.84766 11.5283 3.2959Q9.89258 2.74414 8.53516 1.74805Q7.17773 0.751953 6.17676-0.610352Q5.17578-1.97266 4.62891-3.6084Q4.08203-5.24414 4.08203-7.05078Q4.08203-8.86719 4.62891-10.5029Q5.17578-12.1387 6.17188-13.501Q7.16797-14.8633 8.52539-15.8594Q9.88281-16.8555 11.5186-17.4023Q13.1543-17.9492 14.9609-17.9492Q16.7773-17.9492 18.4131-17.4023Q20.0488-16.8555 21.4111-15.8594Q22.7734-14.8633 23.7695-13.501Q24.7656-12.1387 25.3174-10.5029Q25.8691-8.86719 25.8691-7.05078Q25.8789-5.24414 25.332-3.6084Q24.7852-1.97266 23.7842-0.610352Q22.7832 0.751953 21.4209 1.74805Q20.0586 2.74414 18.4229 3.2959Q16.7871 3.84766 14.9707 3.84766ZM9.45312-7.04102Q9.45312-6.66016 9.71191-6.41113Q9.9707-6.16211 10.3711-6.16211L14.0625-6.16211L14.0625-2.46094Q14.0625-2.06055 14.3115-1.80664Q14.5605-1.55273 14.9414-1.55273Q15.3516-1.55273 15.6055-1.80664Q15.8594-2.06055 15.8594-2.46094L15.8594-6.16211L19.5605-6.16211Q19.9609-6.16211 20.2148-6.41113Q20.4688-6.66016 20.4688-7.04102Q20.4688-7.45117 20.2148-7.70508Q19.9609-7.95898 19.5605-7.95898L15.8594-7.95898L15.8594-11.6504Q15.8594-12.0605 15.6055-12.3145Q15.3516-12.5684 14.9414-12.5684Q14.5605-12.5684 14.3115-12.3096Q14.0625-12.0508 14.0625-11.6504L14.0625-7.95898L10.3711-7.95898Q9.96094-7.95898 9.70703-7.70508Q9.45312-7.45117 9.45312-7.04102Z"></path>
        </g>
        <text style="stroke:none;fill:black;font-family:sans-serif;font-size:13;font-weight:bold;" transform="matrix(1 0 0 1 263 1953)">Design Variations</text>
        <text style="stroke:none;fill:black;font-family:sans-serif;font-size:13;" transform="matrix(1 0 0 1 263 1971)">Symbols are supported in up to nine weights and three scales.</text>
        <text style="stroke:none;fill:black;font-family:sans-serif;font-size:13;" transform="matrix(1 0 0 1 263 1989)">For optimal layout with text and other symbols, vertically align</text>
        <text style="stroke:none;fill:black;font-family:sans-serif;font-size:13;" transform="matrix(1 0 0 1 263 2007)">symbols with the adjacent text.</text>
        <line style="fill:none;stroke:#00AEEF;stroke-width:0.5;opacity:1.0;" x1="776" x2="776" y1="1919" y2="1933"></line>
        <g transform="matrix(1 0 0 1 776 1933)">
            <path d="M3.31055 0.15625Q3.70117 0.15625 3.91602-0.00976562Q4.13086-0.175781 4.26758-0.585938L5.52734-4.0332L11.2891-4.0332L12.5488-0.585938Q12.6855-0.175781 12.9004-0.00976562Q13.1152 0.15625 13.4961 0.15625Q13.8867 0.15625 14.1162-0.0585938Q14.3457-0.273438 14.3457-0.644531Q14.3457-0.869141 14.2383-1.17188L9.6582-13.3691Q9.48242-13.8184 9.17969-14.043Q8.87695-14.2676 8.4082-14.2676Q7.5-14.2676 7.17773-13.3789L2.59766-1.16211Q2.49023-0.859375 2.49023-0.634766Q2.49023-0.263672 2.70996-0.0537109Q2.92969 0.15625 3.31055 0.15625ZM6.00586-5.51758L8.37891-12.0898L8.42773-12.0898L10.8008-5.51758Z"></path>
        </g>
        <line style="fill:none;stroke:#00AEEF;stroke-width:0.5;opacity:1.0;" x1="793.197" x2="793.197" y1="1919" y2="1933"></line>
        <text style="stroke:none;fill:black;font-family:sans-serif;font-size:13;font-weight:bold;" transform="matrix(1 0 0 1 776 1953)">Margins</text>
        <text style="stroke:none;fill:black;font-family:sans-serif;font-size:13;" transform="matrix(1 0 0 1 776 1971)">Leading and trailing margins on the left and right side of each symbol</text>
        <text style="stroke:none;fill:black;font-family:sans-serif;font-size:13;" transform="matrix(1 0 0 1 776 1989)">can be adjusted by modifying the x-location of the margin guidelines.</text>
        <text style="stroke:none;fill:black;font-family:sans-serif;font-size:13;" transform="matrix(1 0 0 1 776 2007)">Modifications are automatically applied proportionally to all</text>
        <text style="stroke:none;fill:black;font-family:sans-serif;font-size:13;" transform="matrix(1 0 0 1 776 2025)">scales and weights.</text>
        <g transform="matrix(1 0 0 1 1289 1933)">
            <path d="M2.8418 1.86523L4.54102 3.57422Q5.18555 4.22852 5.90332 4.17969Q6.62109 4.13086 7.31445 3.35938L18.0078-8.42773L17.041-9.4043L6.42578 2.27539Q6.16211 2.57812 5.89355 2.61719Q5.625 2.65625 5.27344 2.30469L4.10156 1.14258Q3.75 0.791016 3.79395 0.522461Q3.83789 0.253906 4.14062-0.0195312L15.6152-10.8203L14.6387-11.7871L3.04688-0.898438Q2.30469-0.214844 2.25098 0.498047Q2.19727 1.21094 2.8418 1.86523ZM9.25781-16.3281Q8.94531-16.0254 8.90625-15.6348Q8.86719-15.2441 9.04297-14.9512Q9.21875-14.6777 9.55566-14.541Q9.89258-14.4043 10.3809-14.5215Q11.4746-14.7754 12.5977-14.7314Q13.7207-14.6875 14.7949-13.9844L14.209-12.5293Q13.9551-11.9043 14.0674-11.4404Q14.1797-10.9766 14.5801-10.5664L16.875-8.25195Q17.2363-7.88086 17.5781-7.82227Q17.9199-7.76367 18.3398-7.8418L19.4043-8.03711L20.0684-7.36328L20.0293-6.80664Q20-6.43555 20.1221-6.12305Q20.2441-5.81055 20.6055-5.44922L21.3672-4.70703Q21.7285-4.3457 22.1533-4.33105Q22.5781-4.31641 22.9297-4.66797L25.8398-7.58789Q26.1914-7.93945 26.1816-8.35449Q26.1719-8.76953 25.8105-9.13086L25.0391-9.89258Q24.6875-10.2539 24.3799-10.3857Q24.0723-10.5176 23.7109-10.4883L23.1348-10.4395L22.4902-11.0742L22.7344-12.1973Q22.832-12.6172 22.6953-12.9834Q22.5586-13.3496 22.1191-13.7891L19.9219-15.9766Q18.6719-17.2168 17.2607-17.8369Q15.8496-18.457 14.4189-18.4814Q12.9883-18.5059 11.665-17.959Q10.3418-17.4121 9.25781-16.3281ZM10.752-15.957Q11.6602-16.6211 12.7002-16.9043Q13.7402-17.1875 14.8047-17.085Q15.8691-16.9824 16.8701-16.5137Q17.8711-16.0449 18.7012-15.2051L21.1328-12.793Q21.3086-12.6172 21.3525-12.4512Q21.3965-12.2852 21.3379-12.0312L21.0156-10.5469L22.5195-9.0625L23.5059-9.12109Q23.6914-9.13086 23.7891-9.09668Q23.8867-9.0625 24.0332-8.91602L24.6094-8.33984L22.168-5.89844L21.5918-6.47461Q21.4453-6.62109 21.4062-6.71875Q21.3672-6.81641 21.377-7.01172L21.4453-7.98828L19.9512-9.47266L18.4277-9.21875Q18.1836-9.16992 18.042-9.2041Q17.9004-9.23828 17.7148-9.41406L15.7129-11.416Q15.5176-11.5918 15.4932-11.7529Q15.4688-11.9141 15.5859-12.1875L16.4648-14.2773Q15.293-15.3711 13.8281-15.791Q12.3633-16.2109 10.8398-15.7617Q10.7227-15.7324 10.6885-15.8057Q10.6543-15.8789 10.752-15.957Z"></path>
        </g>
        <text style="stroke:none;fill:black;font-family:sans-serif;font-size:13;font-weight:bold;" transform="matrix(1 0 0 1 1289 1953)">Exporting</text>
        <text style="stroke:none;fill:black;font-family:sans-serif;font-size:13;" transform="matrix(1 0 0 1 1289 1971)">Symbols should be outlined when exporting to ensure the</text>
        <text style="stroke:none;fill:black;font-family:sans-serif;font-size:13;" transform="matrix(1 0 0 1 1289 1989)">design is preserved when submitting to Xcode.</text>
        <text id="template-version" style="stroke:none;fill:black;font-family:sans-serif;font-size:13;text-anchor:end;" transform="matrix(1 0 0 1 3036 1933)">Template v.3.0</text>
        <text style="stroke:none;fill:black;font-family:sans-serif;font-size:13;text-anchor:end;" transform="matrix(1 0 0 1 3036 1951)">Requires Xcode 13 or greater</text>
        <text id="descriptive-name" style="stroke:none;fill:black;font-family:sans-serif;font-size:13;text-anchor:end;" transform="matrix(1 0 0 1 3036 1969)">Generated from custom.pencil.circle</text>
        <text style="stroke:none;fill:black;font-family:sans-serif;font-size:13;text-anchor:end;" transform="matrix(1 0 0 1 3036 1987)">Typeset at 100 points</text>
        <text style="stroke:none;fill:black;font-family:sans-serif;font-size:13;" transform="matrix(1 0 0 1 263 726)">Small</text>
        <text style="stroke:none;fill:black;font-family:sans-serif;font-size:13;" transform="matrix(1 0 0 1 263 1156)">Medium</text>
        <text style="stroke:none;fill:black;font-family:sans-serif;font-size:13;" transform="matrix(1 0 0 1 263 1586)">Large</text>
    </g>
    <g id="Guides">
        <g id="H-reference" style="fill:#27AAE1;stroke:none;" transform="matrix(1 0 0 1 339 696)">
            <path d="M0.976562 0L3.66211 0L29.3457-67.1387L30.0293-67.1387L30.0293-70.459L28.125-70.459ZM11.6699-24.4629L46.9727-24.4629L46.2402-26.709L12.4512-26.709ZM55.127 0L57.7637 0L30.6152-70.459L29.4434-70.459L29.4434-67.1387Z"></path>
        </g>
        <line id="Baseline-S" style="fill:none;stroke:#27AAE1;opacity:1;stroke-width:0.5;" x1="263" x2="3036" y1="696" y2="696"></line>
        <line id="Capline-S" style="fill:none;stroke:#27AAE1;opacity:1;stroke-width:0.5;" x1="263" x2="3036" y1="625.541" y2="625.541"></line>
        <g id="H-reference" style="fill:#27AAE1;stroke:none;" transform="matrix(1 0 0 1 339 1126)">
            <path d="M0.976562 0L3.66211 0L29.3457-67.1387L30.0293-67.1387L30.0293-70.459L28.125-70.459ZM11.6699-24.4629L46.9727-24.4629L46.2402-26.709L12.4512-26.709ZM55.127 0L57.7637 0L30.6152-70.459L29.4434-70.459L29.4434-67.1387Z"></path>
        </g>
        <line id="Baseline-M" style="fill:none;stroke:#27AAE1;opacity:1;stroke-width:0.5;" x1="263" x2="3036" y1="1126" y2="1126"></line>
        <line id="Capline-M" style="fill:none;stroke:#27AAE1;opacity:1;stroke-width:0.5;" x1="263" x2="3036" y1="1055.54" y2="1055.54"></line>
        <g id="H-reference" style="fill:#27AAE1;stroke:none;" transform="matrix(1 0 0 1 339 1556)">
            <path d="M0.976562 0L3.66211 0L29.3457-67.1387L30.0293-67.1387L30.0293-70.459L28.125-70.459ZM11.6699-24.4629L46.9727-24.4629L46.2402-26.709L12.4512-26.709ZM55.127 0L57.7637 0L30.6152-70.459L29.4434-70.459L29.4434-67.1387Z"></path>
        </g>
        <line id="Baseline-L" style="fill:none;stroke:#27AAE1;opacity:1;stroke-width:0.5;" x1="263" x2="3036" y1="1556" y2="1556"></line>
        <line id="Capline-L" style="fill:none;stroke:#27AAE1;opacity:1;stroke-width:0.5;" x1="263" x2="3036" y1="1485.54" y2="1485.54"></line>
        <line id="left-margin-Ultralight-S" style="fill:none;stroke:#00AEEF;stroke-width:0.5;opacity:1.0;" x1="531.5482192134857" x2="531.5482192134857" y1="600.784" y2="720.121"></line>
        <line id="right-margin-Ultralight-S" style="fill:none;stroke:#00AEEF;stroke-width:0.5;opacity:1.0;" x1="587.8737778568268" x2="587.8737778568268" y1="600.784" y2="720.121"></line>
        <line id="left-margin-Regular-S" style="fill:none;stroke:#00AEEF;stroke-width:0.5;opacity:1.0;" x1="1417.7639868545532" x2="1417.7639868545532" y1="600.784" y2="720.121"></line>
        <line id="right-margin-Regular-S" style="fill:none;stroke:#00AEEF;stroke-width:0.5;opacity:1.0;" x1="1481.9259545516968" x2="1481.9259545516968" y1="600.784" y2="720.121"></line>
        <line id="left-margin-Black-S" style="fill:none;stroke:#00AEEF;stroke-width:0.5;opacity:1.0;" x1="2898.302467107773" x2="2898.302467107773" y1="600.784" y2="720.121"></line>
        <line id="right-margin-Black-S" style="fill:none;stroke:#00AEEF;stroke-width:0.5;opacity:1.0;" x1="2968.497581720352" x2="2968.497581720352" y1="600.784" y2="720.121"></line>
    </g>
<g id="Symbols"><g id="Ultralight-S" transform="matrix(1,0,0,1,504.96099853515625,606.0205078125)"><path d="M67.84839 76.32807c0 2.46813 1.53738 7.24014 3.17331 11.624519999999999 1.71915 4.60338-1.68192 9.502410000000001-6.59628 9.502410000000001h-19.05519c-4.91436 0-8.315430000000001-4.89903-6.59628-9.502410000000001 1.63812-4.38657 3.17331-9.15858 3.17331-11.624519999999999 0-4.23765-1.30962-7.68471-2.35644-12.818069999999999H70.08C69.07479 68.61269999999999 67.84839 72.17145 67.84839 76.32807z"></path><path d="M70.1676 41.61H39.639c1.51548-5.52975 4.01427-10.498859999999999 5.7224699999999995-13.39623C46.57035 26.161739999999998 47.085 24.282719999999998 47.085 21.9V7.665h15.4833v13.79262c0 2.38272 0.66138 4.70631 1.8702599999999998 6.75834C66.17961 31.168079999999996 68.69592 36.08025 70.1676 41.61z"></path><path d="M64.2765 98.55H45.223499999999994c-2.66742 0-5.16402-1.3074299999999999-6.68607-3.49743-1.5176699999999999-2.19-1.8702599999999998-4.98663-0.9373199999999999-7.48323 2.56668-6.87003 3.1054199999999996-9.90537 3.1054199999999996-11.24127 0-2.7922499999999997-0.5934900000000001-5.36769-1.28334-8.348279999999999-0.9964500000000001-4.3143-2.2359899999999997-9.68418-2.2359899999999997-18.06093 0-8.908919999999998 4.43694-17.77185 7.08246-22.261349999999997C45.39651 25.750019999999996 45.99 23.606009999999998 45.99 21.45762V7.665h2.19v13.79262c0 2.5403999999999995-0.69861 5.06985-2.0235600000000002 7.31241-2.53164 4.29678-6.78024 12.758939999999999-6.78024 21.14883 0 8.1249 1.2088800000000002 13.361189999999999 2.18124 17.565990000000003 0.71832 3.11199 1.33809 5.79912 1.33809 8.84322 0 2.20752-1.09062 6.24807-3.2412 12.007769999999999-0.69204 1.8527399999999998-0.44238 3.84564 0.68328 5.46843C41.46546 95.42925000000001 43.24593 96.36 45.223499999999994 96.36h19.05081c1.97757 0 3.76023-0.93075 4.88589-2.55573 1.12566-1.62279 1.3753199999999999-3.61569 0.68328-5.46843-2.1505799999999997-5.7597-3.2412-9.800249999999998-3.2412-12.007769999999999 0-3.04191 0.6197699999999999-5.72904 1.33809-8.84322 0.97236-4.2048 2.18124-9.441089999999999 2.18124-17.565990000000003 0-8.38989-4.24641-16.852050000000002-6.78024-21.14883C62.018609999999995 26.527469999999997 61.32 23.99802 61.32 21.45762V7.665h2.19v13.79262c0 2.14839 0.5934900000000001 4.2924 1.71915 6.20208 2.64552 4.4895 7.08246 13.35024 7.08246 22.261349999999997 0 8.37675-1.2395399999999999 13.744439999999999-2.2359899999999997 18.06093-0.6876599999999999 2.98059-1.28334 5.5582199999999995-1.28334 8.348279999999999 0 1.3358999999999999 0.53874 4.37343 3.1054199999999996 11.24127 0.93294 2.4966 0.5825400000000001 5.293229999999999-0.9373199999999999 7.48323C69.44051999999999 97.24257 66.94172999999999 98.55 64.2765 98.55z"></path><path d="M64.605 8.76h-19.71C44.29056 8.76 43.8 8.26944 43.8 7.665S44.29056 6.57 44.894999999999996 6.57h19.71C65.20944 6.57 65.7 7.060560000000001 65.7 7.665S65.20944 8.76 64.605 8.76z"></path></g><g id="Regular-S" transform="matrix(1,0,0,1,1392.564970703125,603.4905078125)"><path d="M71.49439000000001 80.55c0 2.50779 1.56267 7.36048 3.22737 11.81937C76.4688 97.04843 73.01052 102.03 68.01463 102.03H45.6629c-4.99589 0-8.452380000000002-4.98157-6.7053400000000005-9.660630000000001 1.6647-4.45889 3.22737-9.30979 3.22737-11.81937 0-5.01379-1.75241-9.16301-2.80493-16.11h34.91932C73.24680000000001 71.38699 71.49439000000001 75.53621 71.49439000000001 80.55z"></path><path d="M74.56603 48.33H39.11150000000001c1.3067-7.27456 4.8509-13.917250000000001 6.90761-17.31288 1.01135-1.6700700000000002 1.53403-3.5782100000000003 1.53403-5.52931V10.74h18.56767v14.747810000000001c0 1.95289 0.5226799999999999 3.86103 1.53403 5.52931C69.71692 34.41275 73.25933 41.05544 74.56603 48.33z"></path><path d="M68.12203000000001 105.61H46.43797c-3.51914 0-6.818110000000001-1.72556-8.8247-4.6146199999999995-2.0048000000000004-2.88906-2.46662-6.58183-1.2350999999999999-9.879010000000001C39.08823 83.85970999999999 39.38 81.30896 39.38 80.55c0-2.55791-0.54953-4.92966-1.24047-7.933280000000001C37.097750000000005 68.10771 35.8 62.49785 35.8 53.7c0-9.95777 4.96904-19.64883 7.933280000000001-24.53732C44.399159999999995 28.06541 44.75 26.79451 44.75 25.487810000000003V10.74h7.16v14.747810000000001c0 2.61519-0.70884 5.16952-2.0513399999999997 7.385540000000001C47.78226 36.29404 42.96 45.17602 42.96 53.7c0 7.97982 1.1456 12.93454 2.1533700000000002 17.30393C45.84727 74.1776 46.54 77.17585000000001 46.54 80.55c0 1.6396400000000002-0.35800000000000004 4.77751-3.45291 13.07058-0.41707000000000005 1.11696-0.26671 2.31447 0.40991000000000005 3.29181C44.17541 97.88973 45.24762 98.45 46.43797 98.45h21.68227c1.19035 0 2.26435-0.56027 2.94097-1.53761 0.6784100000000001-0.9755500000000001 0.82877-2.17485 0.40991000000000005-3.29002C68.378 85.32750999999999 68.02 82.18964 68.02 80.55c0-3.37415 0.6927300000000001-6.3724 1.42663-9.54607C70.4544 66.63454 71.6 61.67982 71.6 53.7c0-8.52398-4.82226-17.40596-6.8986600000000005-20.82665C63.35884 30.655540000000002 62.65 28.102999999999998 62.65 25.487810000000003V10.74h7.16v14.747810000000001c0 1.3067 0.35084000000000004 2.5776 1.0167199999999998 3.67487C73.79096 34.05117 78.76 43.742230000000006 78.76 53.7c0 8.79785-1.29775 14.40771-2.33953 18.916719999999998C75.72953000000001 75.62034 75.18 77.99209 75.18 80.55c0 0.75896 0.29177000000000003 3.30971 3.00183 10.56816 1.23152 3.29539 0.7697 6.98816-1.2350999999999999 9.87722C74.93835 103.88444 71.63938 105.61 68.12203000000001 105.61z"></path><path d="M68.02 14.32H46.54c-1.9761600000000001 0-3.58-1.6038400000000002-3.58-3.58s1.6038400000000002-3.58 3.58-3.58h21.48c1.9761600000000001 0 3.58 1.6038400000000002 3.58 3.58S69.99616 14.32 68.02 14.32z"></path></g><g id="Black-S" transform="matrix(1,0,0,1,2870.4000244140625,597.7705078125)"><path d="M77 85.75c0 2.45175 1.52775 7.196 3.1552499999999997 11.55525C81.86325000000001 101.87975 78.484 106.75 73.59975 106.75H52.40025c-4.88425 0-8.2635-4.8702499999999995-6.5555-9.44475C47.472249999999995 92.946 49 88.20175 49 85.75c0-4.90175-1.71325-8.95825-2.74225-15.75h33.486250000000005C78.71325 76.79175000000001 77 80.84825 77 85.75z"></path><path d="M80.00475 54.25H45.99525c1.2774999999999999-7.112 4.74075-13.606250000000001 6.7532499999999995-16.926000000000002C53.739 35.69125 54.25 33.82575 54.25 31.91825V17.5h17.5v14.41825c0 1.90925 0.511 3.77475 1.49975 5.40575C75.26225 40.643750000000004 78.72725 47.138 80.00475 54.25z"></path><path d="M73.19900000000001 113.75H52.79925c-3.1675 0-6.32625-0.896-8.84275-2.821-5.07675-3.8850000000000002-6.7795000000000005-10.42475-4.6690000000000005-16.07375 2.618-7.0175 2.71075-9.040500000000002 2.7125-9.12275 0-2.0825-0.47250000000000003-4.124750000000001-1.12525-6.951C39.817750000000004 74.2 38.5 68.50025 38.5 59.5c0-10.58575 5.176500000000001-20.7095 8.2635-25.803749999999997C47.08025 33.17125 47.25 32.55525 47.25 31.91825V17.5h14v14.41825c0 3.1955-0.86975 6.31925-2.5147500000000003 9.0335C56.861 44.04575 52.5 52.048500000000004 52.5 59.5c0 7.402500000000001 1.071 12.04 2.016 16.12975C55.279 78.932 56 82.05225 56 85.75c0 1.834-0.3325 4.809-2.74575 11.655000000000001-0.19425 0.5495-0.09975 1.11475 0.1855 1.55225 0.30624999999999997 0.47075 0.8312499999999999 0.7945 1.4577499999999999 0.7945L71.10425000000001 99.75c0.58625 0 1.0867499999999999-0.28525 1.39825-0.7105 0.329-0.448 0.44975-1.05175 0.24325000000000002-1.6380000000000001C70.3325 90.559 70 87.584 70 85.75c0-3.69775 0.721-6.818 1.484-10.12025C72.429 71.54 73.5 66.90249999999999 73.5 59.5c0-7.4515-4.361-15.454249999999998-6.235250000000001-18.54825C65.61975 38.237500000000004 64.75 35.11375 64.75 31.91825V17.5h14v14.41825c0 0.637 0.16975 1.253 0.48650000000000004 1.77975C82.3235 38.7905 87.5 48.91425 87.5 59.5c0 9.00025-1.31775 14.700000000000001-2.37475 19.2815C84.47250000000001 81.60775000000001 84 83.64825 84 85.75c0.00175 0.06475 0.0945 2.08775 2.7125 9.10875 2.10875 5.6455 0.406 12.187000000000001-4.67075 16.072C79.52525 112.854 76.3665 113.75 73.19900000000001 113.75z"></path><path d="M73.5 24.5H52.5c-3.8657500000000002 0-7-3.1342499999999998-7-7s3.1342499999999998-7 7-7h21c3.8657500000000002 0 7 3.1342499999999998 7 7S77.36575 24.5 73.5 24.5z"></path></g></g></svg>